<?xml version="1.0" encoding="utf-8"?>
<!-- Generator: Adobe Illustrator 13.0.0, SVG Export Plug-In . SVG Version: 6.00 Build 14948)  -->
<!DOCTYPE svg PUBLIC "-//W3C//DTD SVG 1.1//EN" "http://www.w3.org/Graphics/SVG/1.1/DTD/svg11.dtd">
<svg version="1.1" id="Layer_2" xmlns="http://www.w3.org/2000/svg" xmlns:xlink="http://www.w3.org/1999/xlink" x="0px" y="0px"
	 width="801px" height="301px" viewBox="0 0 801 301" enable-background="new 0 0 801 301" xml:space="preserve">
<g>
	<line fill="none" stroke="#FF0000" stroke-width="0.75" x1="533.125" y1="132.336" x2="521.07" y2="133.927"/>
	<line fill="none" stroke="#FF0000" stroke-width="0.75" x1="529.715" y1="115.159" x2="517.979" y2="118.303"/>
	<line fill="none" stroke="#FF0000" stroke-width="0.75" x1="505.795" y1="88.856" x2="516.342" y2="82.769"/>
	<line fill="none" stroke="#FF0000" stroke-width="0.75" x1="496.926" y1="75.608" x2="506.572" y2="68.213"/>
	<line fill="none" stroke="#FF0000" stroke-width="0.75" x1="474.391" y1="53.064" x2="481.787" y2="43.43"/>
	<line fill="none" stroke="#FF0000" stroke-width="0.75" x1="461.074" y1="44.15" x2="467.166" y2="33.594"/>
	<line fill="none" stroke="#FF0000" stroke-width="0.75" x1="431.629" y1="31.973" x2="434.778" y2="20.22"/>
	<line fill="none" stroke="#FF0000" stroke-width="0.75" x1="415.947" y1="28.875" x2="417.533" y2="16.809"/>
	<line fill="none" stroke="#FF0000" stroke-width="0.75" x1="266.932" y1="132.336" x2="278.988" y2="133.927"/>
	<line fill="none" stroke="#FF0000" stroke-width="0.75" x1="270.34" y1="115.159" x2="282.08" y2="118.303"/>
	<line fill="none" stroke="#FF0000" stroke-width="0.75" x1="294.263" y1="88.856" x2="283.716" y2="82.769"/>
	<line fill="none" stroke="#FF0000" stroke-width="0.75" x1="303.129" y1="75.608" x2="293.485" y2="68.213"/>
	<line fill="none" stroke="#FF0000" stroke-width="0.75" x1="325.667" y1="53.064" x2="318.268" y2="43.43"/>
	<line fill="none" stroke="#FF0000" stroke-width="0.75" x1="338.982" y1="44.15" x2="332.889" y2="33.594"/>
	<line fill="none" stroke="#FF0000" stroke-width="0.75" x1="368.429" y1="31.973" x2="365.28" y2="20.22"/>
	<line fill="none" stroke="#FF0000" stroke-width="0.75" x1="384.109" y1="28.875" x2="382.522" y2="16.809"/>
	<line fill="none" stroke="#FF0000" stroke-width="0.75" x1="533.125" y1="167.365" x2="521.07" y2="165.773"/>
	<line fill="none" stroke="#FF0000" stroke-width="0.75" x1="529.715" y1="184.543" x2="517.979" y2="181.398"/>
	<line fill="none" stroke="#FF0000" stroke-width="0.75" x1="505.795" y1="210.846" x2="516.342" y2="216.932"/>
	<line fill="none" stroke="#FF0000" stroke-width="0.75" x1="496.926" y1="224.092" x2="506.572" y2="231.488"/>
	<line fill="none" stroke="#FF0000" stroke-width="0.75" x1="474.391" y1="246.637" x2="481.787" y2="256.271"/>
	<line fill="none" stroke="#FF0000" stroke-width="0.75" x1="461.074" y1="255.551" x2="467.166" y2="266.105"/>
	<line fill="none" stroke="#FF0000" stroke-width="0.75" x1="431.629" y1="267.73" x2="434.778" y2="279.48"/>
	<line fill="none" stroke="#FF0000" stroke-width="0.75" x1="415.947" y1="270.826" x2="417.533" y2="282.891"/>
	<line fill="none" stroke="#FF0000" stroke-width="0.75" x1="266.932" y1="167.365" x2="278.988" y2="165.773"/>
	<line fill="none" stroke="#FF0000" stroke-width="0.75" x1="270.34" y1="184.543" x2="282.08" y2="181.398"/>
	<line fill="none" stroke="#FF0000" stroke-width="0.75" x1="294.263" y1="210.846" x2="283.716" y2="216.932"/>
	<line fill="none" stroke="#FF0000" stroke-width="0.75" x1="303.129" y1="224.092" x2="293.485" y2="231.488"/>
	<line fill="none" stroke="#FF0000" stroke-width="0.75" x1="325.667" y1="246.637" x2="318.268" y2="256.271"/>
	<line fill="none" stroke="#FF0000" stroke-width="0.75" x1="338.982" y1="255.551" x2="332.889" y2="266.105"/>
	<line fill="none" stroke="#FF0000" stroke-width="0.75" x1="368.429" y1="267.73" x2="365.28" y2="279.48"/>
	<line fill="none" stroke="#FF0000" stroke-width="0.75" x1="384.109" y1="270.826" x2="382.522" y2="282.891"/>
</g>
<line fill="none" stroke="#FF0000" stroke-width="0.75" x1="400.028" y1="143.682" x2="400.028" y2="156.271"/>
<line fill="none" stroke="#FF0000" stroke-width="0.75" x1="394.244" y1="149.908" x2="406.835" y2="149.908"/>
<rect x="391.288" y="243.84" fill="none" width="29.104" height="40.332"/>
<g enable-background="new    ">
	<path fill="#FF0000" d="M399.758,283.757c-0.847,0-1.527-0.087-2.044-0.261c-0.516-0.175-0.913-0.434-1.193-0.777
		c-0.28-0.343-0.42-0.775-0.42-1.296c0-0.384,0.077-0.722,0.232-1.011c0.154-0.289,0.377-0.529,0.668-0.718
		c0.292-0.188,0.646-0.337,1.064-0.444c0.419-0.107,0.982-0.161,1.692-0.161c0.84,0,1.518,0.087,2.034,0.259
		c0.516,0.172,0.914,0.431,1.195,0.773c0.282,0.344,0.423,0.777,0.423,1.302c0,0.69-0.247,1.231-0.742,1.626
		C402.072,283.521,401.103,283.757,399.758,283.757z M399.758,282.854c1.175,0,1.957-0.138,2.347-0.412
		c0.389-0.275,0.583-0.615,0.583-1.019s-0.195-0.743-0.586-1.019c-0.391-0.274-1.172-0.412-2.344-0.412
		c-1.179,0-1.961,0.138-2.349,0.412c-0.388,0.275-0.581,0.618-0.581,1.028c0,0.403,0.171,0.726,0.513,0.967
		C397.777,282.702,398.583,282.854,399.758,282.854z"/>
	<path fill="#FF0000" d="M403.288,277.951h-7.158v-0.879h2.568c-0.476-0.41-0.713-0.928-0.713-1.553
		c0-0.385,0.076-0.718,0.227-1.001c0.152-0.283,0.361-0.485,0.628-0.608c0.267-0.121,0.654-0.183,1.162-0.183h3.286v0.879h-3.286
		c-0.439,0-0.759,0.095-0.96,0.286c-0.199,0.189-0.3,0.459-0.3,0.808c0,0.261,0.067,0.505,0.202,0.735
		c0.136,0.229,0.318,0.393,0.55,0.49s0.55,0.146,0.957,0.146h2.837V277.951z"/>
</g>
<polygon fill="none" points="321.105,236.338 308.755,248.695 299.007,238.949 311.364,226.598 "/>
<g enable-background="new    ">
	<path fill="#FF0000" d="M307.188,240.094l-0.57,0.666c-0.299-0.188-0.555-0.288-0.766-0.297c-0.346-0.01-0.641,0.109-0.887,0.355
		c-0.198,0.197-0.317,0.428-0.356,0.688c-0.053,0.338,0.001,0.699,0.163,1.087c0.16,0.388,0.492,0.836,0.994,1.347
		c-0.079-0.377-0.064-0.729,0.041-1.057s0.277-0.608,0.514-0.846c0.415-0.414,0.92-0.614,1.518-0.601
		c0.595,0.013,1.135,0.263,1.618,0.745c0.317,0.318,0.545,0.682,0.68,1.092c0.137,0.41,0.157,0.807,0.063,1.191
		c-0.095,0.384-0.294,0.728-0.598,1.031c-0.518,0.518-1.13,0.75-1.838,0.697c-0.708-0.055-1.499-0.52-2.374-1.395
		c-0.979-0.979-1.51-1.87-1.592-2.676c-0.071-0.701,0.16-1.32,0.694-1.854c0.397-0.398,0.836-0.613,1.313-0.645
		S306.744,239.75,307.188,240.094z M306.833,244.813c0.214,0.215,0.465,0.374,0.751,0.479c0.286,0.105,0.563,0.127,0.828,0.064
		c0.267-0.06,0.489-0.18,0.669-0.359c0.262-0.263,0.381-0.594,0.358-0.994c-0.022-0.401-0.216-0.783-0.579-1.146
		c-0.351-0.35-0.72-0.533-1.107-0.547c-0.388-0.016-0.723,0.118-1.006,0.401c-0.281,0.28-0.418,0.62-0.412,1.018
		C306.339,244.124,306.507,244.486,306.833,244.813z"/>
	<path fill="#FF0000" d="M311.892,243.035l-5.063-5.062l0.622-0.622l1.815,1.816c-0.046-0.627,0.152-1.16,0.594-1.603
		c0.271-0.271,0.563-0.453,0.869-0.547c0.307-0.093,0.599-0.089,0.873,0.015c0.275,0.102,0.592,0.332,0.951,0.691l2.324,2.324
		l-0.621,0.621l-2.324-2.324c-0.311-0.311-0.604-0.469-0.881-0.477c-0.275-0.006-0.537,0.113-0.783,0.359
		c-0.185,0.184-0.311,0.405-0.377,0.662c-0.066,0.26-0.053,0.504,0.041,0.736c0.096,0.232,0.286,0.492,0.574,0.78l2.006,2.007
		L311.892,243.035z"/>
</g>
<polygon fill="none" points="326.58,182.568 278.531,206.627 272.96,193.207 323.669,175.506 "/>
<g enable-background="new    ">
	<path fill="#FF0000" d="M277.428,202.553l0.75-0.396c0.219,0.34,0.455,0.555,0.71,0.643s0.528,0.072,0.82-0.049
		c0.249-0.104,0.444-0.252,0.585-0.443c0.141-0.193,0.232-0.409,0.273-0.649c0.041-0.241,0.035-0.54-0.019-0.899
		s-0.149-0.707-0.289-1.043c-0.015-0.035-0.039-0.09-0.072-0.16c-0.055,0.326-0.19,0.627-0.404,0.904
		c-0.215,0.277-0.485,0.484-0.813,0.619c-0.548,0.228-1.094,0.221-1.637-0.02s-0.949-0.684-1.219-1.334
		c-0.277-0.67-0.304-1.293-0.077-1.865c0.226-0.572,0.637-0.982,1.231-1.229c0.431-0.179,0.871-0.226,1.324-0.142
		c0.452,0.085,0.86,0.303,1.222,0.654c0.363,0.352,0.713,0.934,1.049,1.746c0.351,0.846,0.537,1.557,0.561,2.133
		c0.024,0.578-0.091,1.07-0.345,1.482s-0.625,0.719-1.111,0.92c-0.518,0.215-0.999,0.246-1.446,0.096
		C278.073,203.367,277.709,203.045,277.428,202.553z M279.543,198.256c-0.192-0.467-0.47-0.784-0.832-0.955
		c-0.361-0.17-0.716-0.184-1.064-0.039c-0.361,0.148-0.615,0.426-0.76,0.832c-0.146,0.406-0.122,0.844,0.072,1.313
		c0.175,0.422,0.443,0.711,0.807,0.867c0.363,0.158,0.73,0.16,1.104,0.006c0.377-0.156,0.631-0.415,0.764-0.779
		C279.767,199.137,279.736,198.723,279.543,198.256z"/>
	<path fill="#FF0000" d="M283.303,201.91l-2.739-6.613l0.812-0.336l0.983,2.373c0.197-0.597,0.585-1.014,1.162-1.254
		c0.354-0.146,0.692-0.203,1.011-0.174c0.32,0.033,0.588,0.148,0.803,0.348s0.42,0.535,0.613,1.004l1.258,3.036l-0.812,0.337
		l-1.258-3.037c-0.168-0.406-0.378-0.664-0.631-0.777c-0.253-0.111-0.54-0.101-0.862,0.033c-0.24,0.1-0.44,0.255-0.602,0.467
		c-0.159,0.214-0.241,0.445-0.242,0.695c-0.002,0.252,0.074,0.564,0.23,0.941l1.086,2.621L283.303,201.91z"/>
</g>
<polygon fill="none" points="371.606,225.199 355.858,276.859 340.901,270.756 364.539,222.275 "/>
<g enable-background="new    ">
	<path fill="#FF0000" d="M350.428,274.179l0.228-0.857c0.499,0.097,0.896,0.076,1.192-0.063c0.295-0.141,0.51-0.371,0.644-0.693
		c0.158-0.382,0.159-0.759,0.004-1.132c-0.156-0.372-0.43-0.64-0.82-0.802c-0.373-0.154-0.73-0.16-1.074-0.018
		c-0.343,0.144-0.592,0.404-0.748,0.779c-0.063,0.154-0.113,0.356-0.146,0.61l-0.676-0.386c0.028-0.051,0.05-0.094,0.063-0.127
		c0.144-0.346,0.182-0.694,0.116-1.045c-0.066-0.352-0.287-0.605-0.663-0.762c-0.298-0.123-0.586-0.124-0.865-0.004
		c-0.279,0.121-0.483,0.34-0.616,0.659c-0.131,0.315-0.141,0.619-0.029,0.913c0.111,0.292,0.354,0.551,0.725,0.775l-0.48,0.752
		c-0.503-0.324-0.832-0.725-0.984-1.2c-0.154-0.476-0.123-0.976,0.094-1.499c0.15-0.361,0.365-0.661,0.646-0.9
		c0.28-0.24,0.587-0.385,0.922-0.435s0.652-0.013,0.952,0.111c0.286,0.118,0.515,0.303,0.686,0.554s0.265,0.555,0.277,0.913
		c0.252-0.354,0.565-0.58,0.938-0.679c0.375-0.099,0.775-0.06,1.202,0.117c0.577,0.239,0.98,0.652,1.206,1.239
		c0.229,0.588,0.208,1.203-0.059,1.847c-0.24,0.58-0.613,0.99-1.117,1.23C351.539,274.319,351,274.353,350.428,274.179z"/>
	<path fill="#FF0000" d="M354.394,269.542l-6.613-2.739l0.336-0.813l2.372,0.983c-0.282-0.561-0.303-1.13-0.063-1.707
		c0.146-0.355,0.345-0.634,0.592-0.839c0.25-0.203,0.52-0.311,0.813-0.321c0.294-0.011,0.675,0.081,1.145,0.276l3.035,1.257
		l-0.336,0.813l-3.036-1.258c-0.405-0.168-0.737-0.202-0.996-0.104c-0.257,0.1-0.452,0.311-0.586,0.632
		c-0.1,0.24-0.132,0.493-0.095,0.756c0.037,0.265,0.145,0.485,0.32,0.664s0.452,0.346,0.828,0.502l2.621,1.086L354.394,269.542z"/>
</g>
<rect x="392.629" y="15.51" fill="none" width="14.8" height="27.92"/>
<g enable-background="new    ">
	<path fill="#FF0000" d="M396.274,20.545h-0.845v-4.731c0.212-0.006,0.415,0.028,0.61,0.103c0.322,0.121,0.64,0.313,0.952,0.579
		s0.674,0.648,1.084,1.15c0.638,0.778,1.144,1.304,1.516,1.577c0.373,0.273,0.726,0.41,1.058,0.41c0.349,0,0.642-0.125,0.882-0.374
		c0.238-0.249,0.358-0.574,0.358-0.974c0-0.423-0.127-0.762-0.381-1.016s-0.605-0.382-1.055-0.386l0.093-0.903
		c0.674,0.062,1.188,0.294,1.541,0.698c0.353,0.404,0.529,0.946,0.529,1.626c0,0.687-0.19,1.23-0.571,1.631
		s-0.853,0.601-1.416,0.601c-0.286,0-0.568-0.059-0.845-0.176s-0.568-0.312-0.874-0.583s-0.726-0.724-1.26-1.355
		c-0.442-0.527-0.743-0.866-0.901-1.016c-0.157-0.15-0.316-0.273-0.476-0.371V20.545z"/>
	<path fill="#FF0000" d="M395.43,24.305h1.714v-3.105h0.806l4.639,3.267v0.718h-4.639v0.967h-0.806v-0.967h-1.714V24.305z
		 M397.949,24.305h3.228l-3.228-2.241V24.305z"/>
	<path fill="#FF0000" d="M395.43,27.293h7.158v0.879h-2.568c0.476,0.41,0.713,0.928,0.713,1.553c0,0.384-0.076,0.718-0.227,1.001
		c-0.152,0.283-0.361,0.486-0.628,0.608s-0.654,0.183-1.162,0.183h-3.286v-0.879h3.286c0.439,0,0.759-0.095,0.96-0.286
		c0.199-0.19,0.3-0.46,0.3-0.808c0-0.26-0.067-0.505-0.202-0.735c-0.136-0.229-0.318-0.393-0.55-0.491s-0.55-0.146-0.957-0.146
		h-2.837V27.293z"/>
</g>
<rect x="265.762" y="141.067" fill="none" width="24.43" height="12.685"/>
<g enable-background="new    ">
	<path fill="#FF0000" d="M269.488,153.067h-0.879v-5.601c-0.211,0.202-0.489,0.403-0.833,0.605s-0.652,0.354-0.925,0.454v-0.85
		c0.492-0.231,0.921-0.511,1.289-0.84s0.628-0.647,0.781-0.957h0.566V153.067z"/>
	<path fill="#FF0000" d="M276.358,152.223v0.845h-4.731c-0.006-0.212,0.028-0.415,0.103-0.61c0.121-0.322,0.313-0.64,0.579-0.952
		s0.648-0.674,1.15-1.084c0.778-0.638,1.304-1.144,1.577-1.516c0.273-0.373,0.41-0.726,0.41-1.058c0-0.349-0.125-0.642-0.374-0.882
		c-0.249-0.238-0.574-0.358-0.974-0.358c-0.423,0-0.762,0.127-1.016,0.381s-0.382,0.605-0.386,1.055l-0.903-0.093
		c0.062-0.674,0.294-1.188,0.698-1.541c0.404-0.353,0.946-0.529,1.626-0.529c0.687,0,1.23,0.19,1.631,0.571s0.601,0.853,0.601,1.416
		c0,0.286-0.059,0.568-0.176,0.845s-0.312,0.568-0.583,0.874s-0.724,0.726-1.355,1.26c-0.527,0.442-0.866,0.743-1.016,0.901
		c-0.15,0.157-0.273,0.316-0.371,0.476H276.358z"/>
	<path fill="#FF0000" d="M277.544,153.067v-7.158h0.879v2.568c0.41-0.476,0.928-0.713,1.553-0.713c0.384,0,0.718,0.076,1.001,0.227
		c0.283,0.152,0.486,0.361,0.608,0.628s0.183,0.654,0.183,1.162v3.286h-0.879v-3.286c0-0.439-0.095-0.759-0.286-0.96
		c-0.19-0.199-0.46-0.3-0.808-0.3c-0.26,0-0.505,0.067-0.735,0.202c-0.229,0.136-0.393,0.318-0.491,0.55s-0.146,0.55-0.146,0.957
		v2.837H277.544z"/>
</g>
<rect x="302.791" y="54.19" transform="matrix(-0.7072 -0.707 0.707 -0.7072 492.9503 325.7281)" fill="none" width="22.266" height="13.197"/>
<g enable-background="new    ">
	<path fill="#FF0000" d="M304.87,59.371l-0.622-0.622l3.96-3.96c-0.292-0.007-0.631-0.061-1.017-0.16
		c-0.386-0.101-0.711-0.211-0.976-0.333l0.601-0.602c0.511,0.185,1.012,0.291,1.505,0.318c0.493,0.027,0.902-0.014,1.229-0.125
		l0.4,0.4L304.87,59.371z"/>
	<path fill="#FF0000" d="M310.163,59.174c-0.163-0.353-0.22-0.678-0.169-0.977c0.05-0.3,0.198-0.571,0.442-0.815
		c0.368-0.367,0.811-0.545,1.326-0.531c0.516,0.014,0.993,0.24,1.433,0.68c0.442,0.442,0.669,0.926,0.682,1.453
		c0.013,0.525-0.166,0.973-0.533,1.34c-0.235,0.235-0.501,0.379-0.797,0.429c-0.297,0.05-0.618-0.003-0.963-0.159
		c0.209,0.412,0.282,0.813,0.219,1.2c-0.064,0.388-0.252,0.738-0.565,1.052c-0.433,0.433-0.949,0.643-1.55,0.631
		c-0.602-0.012-1.151-0.267-1.65-0.766c-0.5-0.5-0.755-1.051-0.765-1.652c-0.011-0.602,0.205-1.123,0.647-1.566
		c0.329-0.328,0.688-0.521,1.077-0.576C309.385,58.86,309.774,58.946,310.163,59.174z M308.554,60.134
		c-0.177,0.178-0.307,0.391-0.388,0.641c-0.082,0.25-0.085,0.504-0.011,0.76s0.208,0.48,0.399,0.672
		c0.297,0.297,0.637,0.446,1.022,0.448s0.724-0.144,1.019-0.438c0.299-0.299,0.447-0.646,0.443-1.041s-0.154-0.741-0.454-1.041
		c-0.292-0.292-0.631-0.438-1.017-0.437S308.844,59.845,308.554,60.134z M311.092,57.997c-0.24,0.239-0.358,0.512-0.356,0.818
		s0.127,0.582,0.373,0.828c0.239,0.239,0.511,0.36,0.815,0.362c0.303,0.003,0.564-0.104,0.783-0.324
		c0.228-0.228,0.341-0.499,0.337-0.812c-0.001-0.313-0.12-0.586-0.355-0.821c-0.237-0.237-0.51-0.358-0.818-0.362
		C311.564,57.681,311.304,57.784,311.092,57.997z"/>
	<path fill="#FF0000" d="M310.567,65.067l5.062-5.061l0.622,0.621l-1.816,1.816c0.626-0.047,1.16,0.15,1.602,0.593
		c0.272,0.272,0.454,0.562,0.547,0.868c0.093,0.309,0.088,0.6-0.014,0.874c-0.102,0.274-0.333,0.593-0.692,0.952l-2.324,2.323
		l-0.622-0.622l2.324-2.323c0.311-0.312,0.469-0.604,0.477-0.881c0.006-0.276-0.113-0.538-0.359-0.784
		c-0.184-0.184-0.405-0.309-0.663-0.376c-0.259-0.066-0.503-0.054-0.736,0.042c-0.233,0.095-0.493,0.285-0.78,0.572l-2.006,2.007
		L310.567,65.067z"/>
</g>
<rect x="275.777" y="94.616" transform="matrix(-0.9239 -0.3826 0.3826 -0.9239 516.2318 306.2291)" fill="none" width="25.578" height="14.334"/>
<g enable-background="new    ">
	<path fill="#FF0000" d="M278.348,102.781l-0.812-0.337l2.143-5.174c-0.273,0.105-0.606,0.185-1,0.241
		c-0.395,0.055-0.738,0.076-1.029,0.064l0.325-0.785c0.543-0.025,1.047-0.119,1.513-0.282c0.466-0.163,0.828-0.357,1.088-0.585
		l0.523,0.217L278.348,102.781z"/>
	<path fill="#FF0000" d="M281.145,101.91l0.883,0.281c-0.109,0.441-0.092,0.813,0.051,1.119c0.144,0.303,0.378,0.522,0.703,0.657
		c0.391,0.162,0.783,0.152,1.176-0.031c0.393-0.183,0.69-0.518,0.892-1.005c0.192-0.463,0.213-0.882,0.064-1.258
		c-0.149-0.376-0.435-0.65-0.856-0.824c-0.262-0.108-0.522-0.146-0.782-0.116c-0.26,0.032-0.489,0.118-0.688,0.258l-0.721-0.415
		l2.048-3.132l3.288,1.362l-0.321,0.776l-2.639-1.094l-1.092,1.63c0.511-0.112,0.985-0.078,1.422,0.103
		c0.577,0.239,0.981,0.642,1.213,1.206c0.231,0.563,0.217,1.16-0.044,1.789c-0.248,0.598-0.637,1.043-1.166,1.335
		c-0.646,0.359-1.335,0.388-2.069,0.083c-0.602-0.248-1.023-0.621-1.264-1.115S280.969,102.489,281.145,101.91z"/>
	<path fill="#FF0000" d="M285.792,105.864l2.739-6.613l0.812,0.336l-0.983,2.373c0.561-0.282,1.13-0.304,1.707-0.064
		c0.355,0.147,0.634,0.345,0.838,0.593c0.203,0.249,0.311,0.52,0.321,0.813s-0.082,0.674-0.276,1.144l-1.258,3.036l-0.812-0.336
		l1.257-3.036c0.168-0.406,0.203-0.737,0.104-0.996c-0.101-0.257-0.311-0.453-0.632-0.587c-0.241-0.1-0.493-0.131-0.757-0.094
		s-0.485,0.144-0.664,0.319c-0.179,0.177-0.346,0.452-0.501,0.828l-1.086,2.621L285.792,105.864z"/>
</g>
<rect x="338.146" y="33.269" transform="matrix(-0.3828 -0.9238 0.9238 -0.3828 452.4772 386.358)" fill="none" width="34.301" height="17.531"/>
<g enable-background="new    ">
	<path fill="#FF0000" d="M348.468,31.76l-0.78,0.323l-1.811-4.371c0.193-0.087,0.395-0.134,0.604-0.139
		c0.344-0.013,0.711,0.045,1.101,0.17c0.391,0.125,0.871,0.341,1.441,0.647c0.888,0.475,1.556,0.767,2.004,0.877
		c0.449,0.11,0.827,0.102,1.134-0.025c0.322-0.134,0.545-0.361,0.672-0.683c0.125-0.321,0.111-0.668-0.042-1.037
		c-0.162-0.392-0.409-0.656-0.741-0.793c-0.332-0.138-0.706-0.122-1.122,0.047l-0.261-0.869c0.646-0.201,1.21-0.184,1.691,0.055
		c0.48,0.238,0.851,0.672,1.111,1.3c0.263,0.634,0.295,1.21,0.097,1.726c-0.199,0.516-0.558,0.881-1.079,1.097
		c-0.264,0.109-0.547,0.163-0.848,0.161c-0.3-0.003-0.644-0.07-1.031-0.205c-0.386-0.135-0.947-0.391-1.682-0.77
		c-0.61-0.318-1.019-0.516-1.222-0.594c-0.202-0.078-0.397-0.132-0.581-0.161L348.468,31.76z"/>
	<path fill="#FF0000" d="M349.315,36.012l-0.336-0.812l5.174-2.144c-0.268-0.118-0.56-0.298-0.878-0.537
		c-0.318-0.239-0.576-0.467-0.773-0.682l0.785-0.325c0.402,0.366,0.824,0.656,1.269,0.869c0.445,0.215,0.838,0.334,1.183,0.356
		l0.217,0.522L349.315,36.012z"/>
	<path fill="#FF0000" d="M350.271,38.317l6.613-2.739l0.336,0.812l-2.372,0.983c0.596,0.197,1.013,0.584,1.252,1.162
		c0.147,0.354,0.205,0.692,0.174,1.011c-0.033,0.32-0.148,0.588-0.347,0.803c-0.2,0.215-0.535,0.419-1.004,0.613l-3.036,1.258
		l-0.336-0.813l3.036-1.258c0.405-0.168,0.664-0.378,0.777-0.631c0.111-0.252,0.101-0.54-0.033-0.861
		c-0.1-0.24-0.255-0.441-0.468-0.602c-0.213-0.16-0.445-0.241-0.696-0.242c-0.251-0.002-0.564,0.074-0.94,0.23l-2.621,1.086
		L350.271,38.317z"/>
</g>
<polygon fill="none" points="491.933,248.068 455.46,211.809 464.247,203.004 500.717,239.264 "/>
<g enable-background="new    ">
	<path fill="#FF0000" d="M491.706,239.593l-0.667-0.568c0.188-0.299,0.287-0.555,0.295-0.767c0.01-0.346-0.11-0.642-0.357-0.888
		c-0.197-0.197-0.427-0.314-0.688-0.354c-0.338-0.053-0.7,0.002-1.086,0.164c-0.388,0.162-0.836,0.494-1.346,0.996
		c0.377-0.078,0.73-0.065,1.057,0.04c0.327,0.105,0.609,0.276,0.847,0.513c0.415,0.414,0.616,0.919,0.603,1.516
		c-0.012,0.596-0.26,1.136-0.742,1.62c-0.316,0.317-0.68,0.546-1.09,0.682c-0.41,0.138-0.807,0.158-1.191,0.064
		c-0.384-0.093-0.729-0.292-1.033-0.596c-0.519-0.517-0.752-1.13-0.699-1.837c0.054-0.708,0.517-1.5,1.391-2.377
		c0.977-0.979,1.867-1.512,2.672-1.596c0.702-0.072,1.32,0.158,1.855,0.691c0.398,0.396,0.613,0.835,0.646,1.313
		C492.203,238.687,492.049,239.148,491.706,239.593z M486.986,239.245c-0.215,0.215-0.373,0.466-0.477,0.752
		c-0.105,0.287-0.127,0.563-0.064,0.828c0.061,0.267,0.182,0.489,0.361,0.668c0.263,0.262,0.594,0.381,0.995,0.357
		c0.4-0.023,0.782-0.217,1.146-0.582c0.35-0.35,0.531-0.72,0.545-1.107c0.015-0.388-0.12-0.723-0.404-1.006
		c-0.281-0.279-0.619-0.417-1.018-0.41C487.674,238.751,487.313,238.919,486.986,239.245z"/>
	<path fill="#FF0000" d="M488.772,244.3l5.054-5.069l0.622,0.62l-1.813,1.819c0.627-0.048,1.16,0.149,1.604,0.591
		c0.271,0.271,0.455,0.561,0.549,0.867c0.093,0.309,0.089,0.6-0.013,0.875c-0.103,0.273-0.332,0.592-0.69,0.951l-2.32,2.328
		l-0.622-0.621l2.319-2.326c0.311-0.313,0.469-0.605,0.477-0.883c0.005-0.275-0.115-0.537-0.361-0.782
		c-0.185-0.185-0.406-0.31-0.664-0.376s-0.502-0.052-0.735,0.043c-0.232,0.096-0.491,0.286-0.779,0.574l-2.003,2.01L488.772,244.3z"
		/>
</g>
<polygon fill="none" points="522.519,206.471 475.96,186.852 480.982,174.789 527.539,194.406 "/>
<g enable-background="new    ">
	<path fill="#FF0000" d="M513.854,199.744l0.81,0.253c-0.087,0.395-0.072,0.714,0.045,0.956c0.117,0.243,0.321,0.426,0.612,0.548
		c0.25,0.104,0.491,0.139,0.728,0.103c0.235-0.036,0.452-0.124,0.652-0.264c0.2-0.141,0.409-0.356,0.625-0.647
		c0.217-0.29,0.396-0.604,0.536-0.939c0.016-0.036,0.036-0.091,0.063-0.164c-0.271,0.19-0.579,0.307-0.928,0.351
		c-0.348,0.044-0.686-0.004-1.013-0.141c-0.547-0.229-0.926-0.62-1.139-1.175s-0.184-1.156,0.088-1.805
		c0.279-0.67,0.703-1.127,1.269-1.369c0.565-0.243,1.146-0.241,1.741,0.008c0.429,0.18,0.773,0.459,1.032,0.839
		s0.392,0.823,0.397,1.327c0.006,0.507-0.161,1.164-0.5,1.975c-0.354,0.845-0.726,1.479-1.117,1.901
		c-0.393,0.424-0.824,0.69-1.296,0.8c-0.471,0.11-0.95,0.063-1.437-0.141c-0.517-0.216-0.878-0.535-1.086-0.959
		C513.73,200.776,513.702,200.292,513.854,199.744z M518.393,198.218c0.194-0.466,0.225-0.887,0.092-1.264
		c-0.135-0.377-0.375-0.639-0.723-0.784c-0.361-0.15-0.736-0.135-1.127,0.048c-0.391,0.184-0.684,0.509-0.879,0.977
		c-0.176,0.421-0.192,0.815-0.048,1.184c0.144,0.369,0.401,0.632,0.774,0.787c0.375,0.157,0.738,0.155,1.09-0.007
		C517.925,198.997,518.197,198.684,518.393,198.218z"/>
	<path fill="#FF0000" d="M518.449,203.46l2.762-6.604l0.811,0.339l-0.99,2.37c0.562-0.28,1.131-0.3,1.707-0.059
		c0.355,0.148,0.633,0.347,0.836,0.595c0.203,0.25,0.31,0.521,0.319,0.814c0.009,0.293-0.083,0.674-0.279,1.143l-1.269,3.031
		l-0.811-0.339l1.268-3.031c0.17-0.405,0.205-0.737,0.107-0.995c-0.1-0.258-0.309-0.455-0.631-0.589
		c-0.239-0.101-0.492-0.134-0.755-0.098c-0.265,0.037-0.485,0.143-0.665,0.318s-0.348,0.45-0.505,0.826l-1.095,2.617L518.449,203.46
		z"/>
</g>
<polygon fill="none" points="438.946,279.48 418.19,229.389 439.218,220.68 459.956,270.775 "/>
<g enable-background="new    ">
	<path fill="#FF0000" d="M446.531,264.753l0.444,0.767c-0.421,0.284-0.687,0.58-0.798,0.889c-0.109,0.308-0.099,0.623,0.035,0.944
		c0.158,0.383,0.425,0.65,0.798,0.804s0.756,0.149,1.146-0.013c0.373-0.154,0.63-0.403,0.772-0.748
		c0.141-0.344,0.133-0.703-0.023-1.079c-0.063-0.153-0.172-0.332-0.326-0.536l0.749-0.205c0.017,0.057,0.032,0.102,0.046,0.135
		c0.143,0.347,0.362,0.62,0.657,0.822c0.295,0.201,0.63,0.225,1.007,0.068c0.297-0.123,0.502-0.325,0.614-0.608
		c0.112-0.282,0.103-0.583-0.03-0.901c-0.131-0.316-0.339-0.538-0.624-0.666c-0.286-0.129-0.64-0.141-1.062-0.036l-0.192-0.872
		c0.585-0.126,1.101-0.075,1.545,0.153c0.446,0.228,0.776,0.603,0.993,1.126c0.15,0.361,0.21,0.726,0.181,1.094
		c-0.028,0.367-0.144,0.687-0.345,0.959s-0.452,0.471-0.753,0.595c-0.286,0.118-0.577,0.149-0.876,0.093
		c-0.298-0.056-0.578-0.205-0.841-0.449c0.071,0.429,0.009,0.81-0.185,1.145c-0.195,0.334-0.506,0.59-0.933,0.767
		c-0.577,0.239-1.154,0.231-1.729-0.024c-0.576-0.254-0.997-0.703-1.264-1.347c-0.24-0.581-0.268-1.134-0.08-1.661
		C445.646,265.439,446.003,265.035,446.531,264.753z"/>
	<path fill="#FF0000" d="M447.006,270.835l6.613-2.739l0.336,0.812l-2.373,0.983c0.596,0.197,1.014,0.585,1.253,1.162
		c0.147,0.354,0.204,0.692,0.174,1.011c-0.032,0.32-0.147,0.588-0.348,0.803c-0.199,0.215-0.534,0.42-1.003,0.613l-3.037,1.258
		l-0.336-0.812l3.036-1.258c0.406-0.168,0.664-0.378,0.777-0.631c0.111-0.253,0.101-0.54-0.032-0.862
		c-0.1-0.24-0.256-0.44-0.468-0.602c-0.214-0.159-0.444-0.241-0.695-0.242c-0.251-0.002-0.564,0.074-0.94,0.23l-2.621,1.086
		L447.006,270.835z"/>
</g>
<rect x="483.426" y="141.067" fill="none" width="50.672" height="12.644"/>
<g enable-background="new    ">
	<path fill="#FF0000" d="M521.14,153.066h-0.879v-5.601c-0.212,0.202-0.489,0.403-0.833,0.605c-0.343,0.202-0.651,0.354-0.925,0.454
		v-0.85c0.491-0.231,0.921-0.511,1.289-0.84s0.628-0.647,0.781-0.957h0.566V153.066z"/>
	<path fill="#FF0000" d="M528.01,152.222v0.845h-4.731c-0.007-0.212,0.028-0.415,0.103-0.61c0.121-0.322,0.313-0.64,0.578-0.952
		c0.266-0.313,0.648-0.674,1.15-1.084c0.777-0.638,1.304-1.144,1.577-1.516c0.273-0.373,0.41-0.726,0.41-1.058
		c0-0.349-0.124-0.642-0.374-0.882c-0.248-0.238-0.573-0.358-0.974-0.358c-0.423,0-0.762,0.127-1.016,0.381
		s-0.382,0.605-0.386,1.055l-0.903-0.093c0.062-0.674,0.294-1.188,0.698-1.541c0.404-0.353,0.945-0.529,1.626-0.529
		c0.687,0,1.23,0.19,1.631,0.571s0.601,0.853,0.601,1.416c0,0.286-0.059,0.568-0.176,0.845s-0.312,0.568-0.584,0.874
		c-0.271,0.306-0.723,0.726-1.354,1.26c-0.527,0.442-0.866,0.743-1.016,0.901c-0.149,0.157-0.273,0.316-0.371,0.476H528.01z"/>
	<path fill="#FF0000" d="M529.196,153.066v-7.158h0.879v2.568c0.41-0.476,0.928-0.713,1.553-0.713c0.384,0,0.718,0.076,1.001,0.227
		c0.283,0.152,0.486,0.361,0.607,0.628c0.123,0.267,0.184,0.654,0.184,1.162v3.286h-0.879v-3.286c0-0.439-0.096-0.759-0.285-0.96
		c-0.191-0.199-0.461-0.3-0.809-0.3c-0.26,0-0.506,0.067-0.734,0.202c-0.23,0.136-0.394,0.318-0.491,0.55s-0.146,0.55-0.146,0.957
		v2.837H529.196z"/>
</g>
<polygon fill="none" points="497.787,57.337 462.044,92.564 452.991,83.473 488.736,48.247 "/>
<g enable-background="new    ">
	<path fill="#FF0000" d="M487.879,65.77l-0.624,0.619l-3.944-3.977c-0.008,0.292-0.063,0.631-0.164,1.016
		c-0.102,0.385-0.215,0.71-0.338,0.975l-0.598-0.604c0.186-0.511,0.295-1.011,0.323-1.504c0.029-0.493-0.01-0.902-0.119-1.229
		l0.402-0.399L487.879,65.77z"/>
	<path fill="#FF0000" d="M487.703,60.476c-0.354,0.162-0.678,0.217-0.978,0.165c-0.299-0.052-0.569-0.201-0.813-0.445
		c-0.366-0.37-0.543-0.813-0.526-1.328c0.016-0.515,0.244-0.992,0.686-1.43c0.443-0.44,0.93-0.665,1.455-0.675
		s0.973,0.169,1.339,0.539c0.233,0.235,0.376,0.502,0.425,0.798c0.049,0.298-0.005,0.619-0.162,0.963
		c0.412-0.208,0.813-0.28,1.2-0.215c0.388,0.066,0.737,0.255,1.049,0.569c0.431,0.435,0.64,0.952,0.626,1.553
		s-0.271,1.149-0.773,1.647s-1.053,0.75-1.656,0.758c-0.602,0.008-1.122-0.209-1.563-0.653c-0.328-0.331-0.519-0.691-0.572-1.08
		C487.386,61.252,487.475,60.864,487.703,60.476z M486.529,59.542c0.239,0.24,0.512,0.36,0.818,0.359
		c0.305-0.001,0.582-0.125,0.829-0.37c0.24-0.238,0.362-0.509,0.366-0.813c0.003-0.303-0.104-0.565-0.321-0.785
		c-0.228-0.229-0.497-0.343-0.81-0.341c-0.314,0-0.588,0.118-0.824,0.352c-0.238,0.236-0.359,0.509-0.365,0.817
		C486.217,59.069,486.318,59.329,486.529,59.542z M488.656,62.088c0.178,0.178,0.391,0.308,0.639,0.391
		c0.25,0.083,0.504,0.087,0.761,0.014c0.257-0.074,0.481-0.207,0.673-0.397c0.298-0.295,0.449-0.635,0.453-1.02
		c0.004-0.384-0.141-0.724-0.435-1.02c-0.298-0.3-0.645-0.45-1.039-0.448c-0.395,0.002-0.742,0.152-1.042,0.45
		c-0.295,0.292-0.441,0.63-0.441,1.015C488.224,61.459,488.367,61.797,488.656,62.088z"/>
	<path fill="#FF0000" d="M493.6,60.096l-5.041-5.083l0.623-0.619l1.809,1.824c-0.043-0.627,0.157-1.16,0.602-1.6
		c0.271-0.271,0.563-0.452,0.869-0.544c0.309-0.091,0.6-0.085,0.874,0.018c0.274,0.104,0.591,0.336,0.948,0.696l2.314,2.333
		l-0.624,0.619l-2.314-2.333c-0.31-0.312-0.602-0.472-0.878-0.48c-0.275-0.007-0.538,0.111-0.785,0.356
		c-0.186,0.184-0.312,0.404-0.38,0.661c-0.067,0.258-0.055,0.503,0.039,0.736c0.094,0.233,0.283,0.493,0.569,0.782l1.998,2.015
		L493.6,60.096z"/>
</g>
<polygon fill="none" points="525.898,102.852 476.074,121.566 471.125,111.204 521.201,90.447 "/>
<g enable-background="new    ">
	<path fill="#FF0000" d="M513.48,106.635l-0.812,0.337l-2.145-5.174c-0.118,0.268-0.298,0.56-0.537,0.878s-0.467,0.576-0.681,0.774
		l-0.325-0.785c0.365-0.402,0.655-0.825,0.869-1.269c0.214-0.445,0.333-0.839,0.355-1.184l0.522-0.217L513.48,106.635z"/>
	<path fill="#FF0000" d="M514.843,104.042l0.822-0.426c0.235,0.389,0.512,0.641,0.828,0.755c0.316,0.113,0.638,0.103,0.962-0.032
		c0.391-0.162,0.66-0.446,0.809-0.854s0.122-0.854-0.08-1.341c-0.191-0.463-0.473-0.774-0.844-0.935s-0.768-0.152-1.188,0.022
		c-0.261,0.108-0.473,0.266-0.635,0.471c-0.161,0.207-0.263,0.43-0.304,0.669l-0.804,0.216l-0.768-3.662l3.288-1.363l0.322,0.775
		l-2.639,1.094l0.38,1.925c0.282-0.441,0.642-0.752,1.077-0.933c0.578-0.239,1.148-0.241,1.711-0.005
		c0.563,0.235,0.974,0.667,1.234,1.295c0.248,0.599,0.288,1.188,0.12,1.769c-0.202,0.711-0.67,1.219-1.404,1.523
		c-0.601,0.25-1.162,0.284-1.682,0.105C515.529,104.932,515.127,104.576,514.843,104.042z"/>
	<path fill="#FF0000" d="M520.924,103.55l-2.741-6.612l0.813-0.337l0.983,2.373c0.196-0.596,0.584-1.014,1.161-1.253
		c0.355-0.147,0.692-0.205,1.011-0.174c0.32,0.033,0.588,0.148,0.803,0.347c0.215,0.2,0.42,0.534,0.614,1.004l1.259,3.035
		l-0.813,0.337l-1.258-3.036c-0.169-0.406-0.379-0.665-0.632-0.777c-0.253-0.111-0.54-0.101-0.861,0.033
		c-0.241,0.1-0.44,0.255-0.602,0.468c-0.16,0.213-0.241,0.444-0.243,0.695c-0.002,0.251,0.076,0.564,0.231,0.94l1.087,2.621
		L520.924,103.55z"/>
</g>
<polygon fill="none" points="457.992,28.122 434.022,76.524 426.95,73.6 443.198,22.089 "/>
<g enable-background="new    ">
	<path fill="#FF0000" d="M449.062,37.093l0.78,0.323l-1.81,4.372c-0.199-0.075-0.373-0.185-0.525-0.328
		c-0.252-0.235-0.471-0.534-0.658-0.899c-0.187-0.365-0.374-0.857-0.562-1.477c-0.291-0.963-0.558-1.643-0.798-2.038
		c-0.239-0.395-0.513-0.656-0.819-0.783c-0.322-0.133-0.642-0.131-0.958,0.008c-0.315,0.138-0.55,0.393-0.703,0.763
		c-0.162,0.391-0.175,0.752-0.037,1.084c0.138,0.332,0.413,0.585,0.827,0.76l-0.432,0.799c-0.599-0.315-0.984-0.727-1.156-1.235
		c-0.171-0.508-0.128-1.076,0.132-1.705c0.263-0.635,0.647-1.064,1.152-1.289c0.505-0.224,1.018-0.229,1.538-0.013
		c0.264,0.109,0.502,0.271,0.714,0.485c0.21,0.214,0.405,0.505,0.584,0.874s0.394,0.946,0.646,1.734
		c0.207,0.656,0.355,1.084,0.443,1.282c0.089,0.199,0.188,0.374,0.299,0.525L449.062,37.093z"/>
	<path fill="#FF0000" d="M451.469,33.486l-0.336,0.813l-5.175-2.143c0.104,0.272,0.185,0.606,0.241,1.001
		c0.055,0.395,0.076,0.737,0.064,1.028l-0.784-0.325c-0.025-0.542-0.121-1.046-0.283-1.512c-0.163-0.466-0.359-0.829-0.586-1.088
		l0.217-0.523L451.469,33.486z"/>
	<path fill="#FF0000" d="M452.423,31.181l-6.614-2.738l0.336-0.812l2.373,0.982c-0.282-0.561-0.303-1.13-0.063-1.708
		c0.146-0.354,0.344-0.634,0.592-0.838s0.52-0.311,0.813-0.321s0.675,0.081,1.145,0.275l3.036,1.257l-0.337,0.812l-3.036-1.257
		c-0.406-0.168-0.738-0.202-0.996-0.103c-0.258,0.1-0.453,0.311-0.586,0.632c-0.1,0.24-0.131,0.493-0.095,0.756
		c0.037,0.265,0.144,0.485,0.32,0.664s0.452,0.346,0.829,0.501l2.621,1.085L452.423,31.181z"/>
</g>
</svg>
