<?xml version="1.0" encoding="utf-8"?>
<!-- Generator: Adobe Illustrator 13.0.0, SVG Export Plug-In . SVG Version: 6.00 Build 14948)  -->
<!DOCTYPE svg PUBLIC "-//W3C//DTD SVG 1.1//EN" "http://www.w3.org/Graphics/SVG/1.1/DTD/svg11.dtd">
<svg version="1.1" xmlns="http://www.w3.org/2000/svg" xmlns:xlink="http://www.w3.org/1999/xlink" x="0px" y="0px" width="801px"
	 height="301px" viewBox="0 0 801 301" enable-background="new 0 0 801 301" xml:space="preserve">
<g id="Y_x5F_SEC_x5F_02" display="none">
	<g id="SPLINE" display="inline">
		<path fill="#99CC00" d="M389.353,193.579c8.276-4.212,18.836-10.92,19.699-19.698l0,0c0.271-2.763-0.416-5.731,0-8.767l0,0
			c0.957-6.969,7.74-14.293,14.232-14.233l0,0c6.492,0.063,12.692,7.507,14.232,14.233l0,0c0.67,2.93,0.457,5.723,0,8.767l0,0
			c-2.504,16.655-12.314,40.774-33.931,33.931l0,0C394.518,204.94,383.374,196.621,389.353,193.579"/>
	</g>
	<g id="SPLINE_1_" display="inline">
		<path fill="#99CC00" d="M368.005,136.649c-0.212-0.351,0.169-0.733,0.55-1.101l0,0c9.096-8.762,17.962-8.758,26.265-13.132l0,0
			c5.691-2.997,11.117-8.053,14.232-14.231l0,0c4.406-8.739,4.19-19.729,0-28.465l0,0c-2.963-6.178-7.914-11.229-14.232-14.232l0,0
			c-8.937-4.248-20.61-4.402-28.465,0l0,0c-5.554,3.112-9.198,8.503-14.232,14.232l0,0c-4.903,5.58-11.125,11.481-8.767,17.533l0,0
			c0.93,2.386,3.195,4.795,5.466,5.465l0,0c5.76,1.699,11.563-7.789,17.533-8.766l0,0c6.13-1.004,12.437,6.967,14.232,14.232l0,0
			c2.619,10.598-4.36,19.693-13.132,26.264l0,0c-0.368,0.275-0.738,0.546-1.1,0.551l0,0c-0.362,0.003-0.716-0.26-1.1-0.551l0,0
			c-2.203-1.67-5.418-4.297-5.501-4.4l0,0c-0.083-0.105,2.967,2.312,4.401,5.5l0,0c1.629,3.625,1.17,8.248,2.2,7.702l0,0
			C367.23,142.786,369.18,138.59,368.005,136.649"/>
	</g>
</g>
<g id="Y_x5F_SEC_x5F_03" display="none">
	<g id="SPLINE_179_" display="inline">
		<path fill="#99CC00" d="M400.286,182.646c2.39-6.081,5.224-11.171,8.767-17.532l0,0c3.637-6.532,8.02-14.405,14.232-14.233l0,0
			c6.212,0.174,14.254,8.393,14.232,14.233l0,0c-0.022,5.84-8.108,9.301-14.232,14.232l0,0c-5.965,4.801-10.07,10.994-17.533,8.767
			l0,0C402.808,187.234,399.343,185.044,400.286,182.646"/>
	</g>
	<g id="SPLINE_178_" display="inline">
		<path fill="#99CC00" d="M389.353,182.646c-6.108-2.32-7.322-10.278-8.766-17.532l0,0c-3.545-17.82-8.461-31.378,0-48.163l0,0
			c3.535-7.014,9.407-14.593,14.232-14.232l0,0c6.678,0.5,11.35,16.205,19.699,19.698l0,0c2.626,1.1,5.617,0.989,8.766,0l0,0
			c7.227-2.271,15.277-9.177,14.232-14.231l0,0c-1.047-5.056-11.188-8.262-14.232-14.232l0,0c-0.699-1.371-1.024-2.887-1.461-4.384
			l0,0c-3.611-12.364-14.859-23.329-27.004-27.003l0,0c-7.923-2.397-16.229-1.691-24.082-6.386l0,0
			c-1.545-0.923-3.072-2.056-4.383-2.192l0,0c-3.102-0.322-4.993,4.932-8.199,8.199l0,0c-3.88,3.955-9.686,5.003-10.958,8.767l0,0
			c-0.795,2.352,0.18,5.763,0,8.767l0,0c-0.825,13.795-25.981,19-28.465,28.465l0,0c-2.054,7.826,11.398,18.565,23.54,23.539l0,0
			c4.017,1.646,7.89,2.66,9.849,4.925l0,0c5.065,5.856-2.654,20.069,0,28.465l0,0c1.877,5.937,8.942,8.963,14.232,14.232l0,0
			c5.152,5.131,8.621,12.391,17.533,8.767l0,0C387.402,186.684,391.763,183.562,389.353,182.646"/>
	</g>
</g>
<g id="Y_x5F_SEC_x5F_04" display="none">
	<g id="SPLINE_4_" display="inline">
		<path fill="#99CC00" d="M332.425,250.507c0.32-2.557,2.824-5.416,5.465-5.465l0,0c2.642-0.051,5.42,2.708,5.466,5.465l0,0
			c0.046,2.758-2.642,5.517-5.466,5.467l0,0C335.066,255.923,332.105,253.064,332.425,250.507"/>
	</g>
	<g id="SPLINE_5_" display="inline">
		<path fill="#99CC00" d="M400.286,193.579c2.536,0.452,4.696-2.383,5.466-5.466l0,0c1.744-6.996-3.666-15.278,0-17.534l0,0
			c2.898-1.783,11.473,0.201,13.15,4.385l0,0c1.061,2.645-0.637,6.171,0,8.766l0,0c1.01,4.123,7.911,5.9,9.85,9.85l0,0
			c2.799,5.707-4.766,15.953-14.232,14.232l0,0C405.051,206.089,393.68,192.399,400.286,193.579"/>
	</g>
	<g id="SPLINE_6_" display="inline">
		<path fill="#99CC00" d="M369.087,79.721c-0.185-1.623,1.019-2.958,2.192-4.383l0,0c5.001-6.077,9.445-13.793,14.773-14.773l0,0
			c7.313-1.347,16.292,10.003,21.349,19.156l0,0c1.652,2.992,2.888,5.75,4.194,8.388l0,0c2.607,5.263,5.502,10.048,11.688,14.61l0,0
			c2.556,1.886,5.673,3.734,5.467,5.467l0,0c-0.209,1.732-3.738,3.35-5.467,5.465l0,0c-1.096,1.341-1.467,2.882-2.191,4.383l0,0
			c-1.376,2.852-4.029,5.561-6.574,6.576l0,0c-7.376,2.938-13.858-8.362-21.35-16.424l0,0
			C382.799,97.025,370.497,92.068,369.087,79.721"/>
	</g>
	<g id="SPLINE_7_" display="inline">
		<path fill="#99CC00" d="M337.89,56.722c2.557-0.319,5.416-2.824,5.466-5.466l0,0c0.051-2.642-2.708-5.42-5.466-5.466l0,0
			c-2.758-0.046-5.516,2.642-5.465,5.466l0,0C332.475,54.08,335.334,57.041,337.89,56.722"/>
	</g>
</g>
<g id="Y_x5F_SEC_x5F_05" display="none">
	<g id="SPLINE_171_" display="inline">
		<path fill="#99CC00" d="M417.819,193.579c0.319-2.557,2.824-5.416,5.466-5.466l0,0c2.643-0.052,5.42,2.707,5.467,5.466l0,0
			c0.045,2.758-2.643,5.516-5.467,5.465l0,0C420.46,198.994,417.5,196.135,417.819,193.579"/>
	</g>
	<g id="SPLINE_170_" display="inline">
		<path fill="#99CC00" d="M366.355,177.695c5.801-1.237,10.848-6.964,12.582-12.581l0,0c2.86-9.262-3.282-18.225-7.116-28.465l0,0
			c-3.721-9.934-5.269-21.069,0-28.464l0,0c1.431-2.008,3.364-3.741,5.465-5.467l0,0c5.329-4.374,11.739-8.703,17.534-8.766l0,0
			c5.795-0.063,10.977,4.14,17.533,8.766l0,0c2.586,1.825,5.385,3.715,5.466,5.467l0,0c0.129,2.809-6.733,5.263-8.767,8.766l0,0
			c-3.299,5.688,6.137,14.145,14.232,14.232l0,0c8.096,0.088,14.85-8.192,14.232-14.232l0,0c-0.617-6.039-8.606-9.84-14.232-14.232
			l0,0c-2.161-1.686-3.973-3.461-5.466-5.465l0,0c-3.786-5.084-5.522-11.646-8.767-17.533l0,0
			c-3.332-6.046-8.254-11.381-14.232-14.232l0,0c-5.822-2.776-12.647-3.195-17.534-8.767l0,0c-3.853-4.394-6.5-11.991-10.931-10.932
			l0,0c-2.216,0.53-4.876,3.224-5.466,5.466l0,0c-1.178,4.484,5.933,7.157,10.932,10.932l0,0c6.34,4.786,9.284,11.342,8.767,17.533
			l0,0c-0.519,6.19-4.5,12.018-8.767,17.533l0,0c-1.682,2.175-3.409,4.301-5.466,5.465l0,0c-7.573,4.287-19.622-4.477-28.465,0l0,0
			c-2.401,1.216-4.566,3.408-5.465,5.467l0,0c-4.684,10.717,24.957,17.792,28.464,28.464l0,0c2.557,7.778-8.771,17.467-7.115,28.465
			l0,0C354.777,171.783,360.555,178.935,366.355,177.695"/>
	</g>
</g>
<g id="Y_x5F_SEC_x5F_06" display="none">
	<g id="SPLINE_10_" display="inline">
		<path fill="#99CC00" d="M394.82,179.347c5.231-4.201,10.596-7.961,14.232-14.232l0,0c1.633-2.816,2.918-6.14,2.192-8.766l0,0
			c-1.119-4.051-7.015-6.448-9.85-9.851l0,0c-2.242-2.689-2.571-6.006-4.926-9.849l0,0c-0.498-0.814-1.088-1.653-1.649-1.649l0,0
			c-0.563,0.001-1.094,0.844-1.65,1.649l0,0c-5.867,8.499-14.329,12.892-14.773,19.699l0,0c-0.164,2.497,0.753,5.32,2.191,8.766l0,0
			C383.792,172.788,389.587,183.548,394.82,179.347"/>
	</g>
</g>
<g id="Y_x5F_SEC_x5F_07" display="none">
	<g id="SPLINE_166_" display="inline">
		<path fill="#99CC00" d="M412.353,102.719c2.494-0.646,4.602-3.113,5.466-5.465l0,0c2.192-5.966-3.601-11.199-8.767-17.533l0,0
			c-15.914-19.512-25.869-49.473-42.697-42.697l0,0c-5.609,2.26-11.982,8.6-14.232,14.232l0,0
			c-6.75,16.9,23.606,27.436,42.697,42.697l0,0C401.017,98.907,406.029,104.36,412.353,102.719"/>
	</g>
	<g id="SPLINE_165_" display="inline">
		<path fill="#99CC00" d="M399.203,113.109c3.664-2.515,10.992-4.289,13.15-2.191l0,0c2.84,2.76-3.259,12.216,0,17.533l0,0
			c2.155,3.516,8.401,5.222,8.199,8.198l0,0c-0.086,1.258-1.324,2.743-2.193,4.384l0,0c-3.596,6.795-0.844,16.255-4.923,19.698l0,0
			c-2.786,2.35-8.755,1.895-13.15,4.383l0,0c-6.383,3.611-9.445,13.426-14.232,14.232l0,0c-4.787,0.805-11.301-7.4-14.232-14.232
			l0,0c-1.641-3.825-2.16-7.221-2.733-10.932l0,0c-0.892-5.775-1.918-12.317,0-17.533l0,0c0.536-1.458,1.302-2.812,2.192-4.384l0,0
			c3.791-6.699,9.82-17.35,14.773-14.772l0,0c2.597,1.351,4.898,6.341,8.767,6.574l0,0c1.73,0.104,3.773-0.743,4.383-2.191l0,0
			C400.293,119.283,396.793,114.764,399.203,113.109"/>
	</g>
</g>
<g id="Y_x5F_SEC_x5F_08" display="none">
	<g id="SPLINE_13_" display="inline">
		<path fill="#99CC00" d="M375.121,182.269c6.351-1.666,13.491-2.035,19.699,0l0,0c1.456,0.478,2.861,1.087,4.383,1.461l0,0
			c17.854,4.39,51.875-23.576,38.314-38.313l0,0c-3.104-3.372-8.697-6.051-8.766-8.767l0,0c-0.07-2.715,5.386-5.466,8.766-8.767l0,0
			c7.759-7.578,4.571-18.061,0-28.465l0,0c-3.232-7.355-7.156-14.674-14.232-14.231l0,0c-9.814,0.613-25.696,16.159-18.615,20.807
			l0,0c1.242,0.816,3.193,1.296,4.383,2.192l0,0c4.785,3.6-2.703,13.915,0,19.697l0,0c1.701,3.639,7.438,5.483,8.767,8.767l0,0
			c2.156,5.331-7.31,14.459-14.232,14.231l0,0c-3.178-0.104-5.82-2.18-8.767-2.921l0,0c-6.281-1.584-13.948,2.89-19.699,0l0,0
			c-3.725-1.872-6.646-6.835-6.566-10.943l0,0c0.156-7.92,11.46-12.673,14.224-20.065l0,0c0.989-2.645,0.884-5.627,0.731-8.766l0,0
			c-0.497-10.156-1.508-21.964,10.942-26.265l0,0c3.197-1.104,7.283-1.714,6.969-2.2l0,0c-0.293-0.453-4.401-0.799-6.602-1.65l0,0
			c-0.398-0.154-0.733-0.324-1.102-0.551l0,0c-2.101-1.292-5.23-4.393-5.5-4.4l0,0c-0.27-0.008,2.321,3.078,4.4,5.501l0,0
			c0.363,0.423,0.71,0.826,0.551,1.101l0,0c-0.087,0.147-0.319,0.257-0.551,0.367l0,0c-9.961,4.71-17.865,8.401-26.264,10.943l0,0
			c-2.728,0.824-5.508,1.529-8.767,2.922l0,0c-7.099,3.033-16.47,9.337-14.232,14.232l0,0c0.859,1.879,3.431,3.551,5.466,5.465l0,0
			c5.188,4.88,6.892,11.334,10.931,16.398l0,0c1.444,1.811,3.187,3.441,4.401,5.5l0,0c0.211,0.36,0.408,0.732,0.55,1.101l0,0
			c2.845,7.376-15.882,13.194-14.773,19.699l0,0c0.419,2.455,3.667,5.01,6.575,6.574l0,0c1.533,0.824,2.972,1.375,4.383,2.191l0,0
			c2.228,1.287,4.387,3.236,5.466,5.465l0,0c0.645,1.333,0.904,2.764,1.461,4.385l0,0
			C369.061,178.585,371.79,183.142,375.121,182.269"/>
	</g>
</g>
<g id="Y_x5F_SEC_x5F_09" display="none">
	<g id="SPLINE_161_" display="inline">
		<path fill="#99CC00" d="M423.285,207.812c2.941-3.594,6.299-6.746,9.85-9.85l0,0c1.578-1.382,3.197-2.753,4.383-4.383l0,0
			c1.823-2.508,2.621-5.629,3.757-8.768l0,0c2.417-6.682,6.362-13.45,4.925-19.697l0,0c-0.676-2.935-2.539-5.754-3.758-8.766l0,0
			c-2.516-6.224-2.281-13.272,0-19.699l0,0c1.071-3.015,2.594-5.892,2.923-8.767l0,0c0.726-6.314-4.304-12.613-4.925-19.697l0,0
			c-0.27-3.07,0.289-6.286-0.73-8.768l0,0c-1.613-3.927-7.183-6.008-9.849-9.849l0,0c-2.109-3.036-2.403-7.172-4.925-9.849l0,0
			c-0.535-0.567-1.169-1.069-1.65-1.65l0,0c-1.095-1.32-1.399-3.049-1.969-4.925l0,0c-2.699-8.866-11.34-21.015-17.729-17.728l0,0
			c-2.932,1.508-5.39,6.268-8.767,7.451l0,0c-2.804,0.982-6.238-0.497-9.363-1.873l0,0c-5.482-2.414-10.007-4.51-13.636-9.74l0,0
			c-1.674-2.412-3.157-5.492-5.466-5.466l0,0c-2.309,0.026-5.443,3.159-5.466,5.466l0,0c-0.022,2.308,3.065,3.79,5.466,5.466l0,0
			c5.205,3.634,7.183,8.175,9.74,13.637l0,0c1.457,3.112,3.103,6.522,1.873,9.362l0,0c-0.539,1.244-1.63,2.378-2.847,3.065l0,0
			c-2.568,1.452-5.697,0.911-8.766,1.096l0,0c-11.941,0.718-22.99,12.407-24.303,24.304l0,0c-0.811,7.343,2.089,14.764,7.879,19.697
			l0,0c3.83,3.263,8.924,5.438,10.958,8.767l0,0c4.126,6.754-4.339,18.262,0,28.465l0,0c1.179,2.771,3.301,5.444,5.466,5.465l0,0
			c2.165,0.021,4.372-2.611,5.466-5.465l0,0c4.027-10.508-7.045-24.005,0-28.465l0,0c1.213-0.769,2.963-1.268,4.383-2.192l0,0
			c7.31-4.753,5.892-20.731,12.663-21.809l0,0c1.611-0.255,3.686,0.332,5.953,0.744l0,0c5.545,1.012,12.242,0.979,14.232,3.559l0,0
			c2.754,3.571-3.514,12.148-4.924,19.698l0,0c-1.369,7.325,1.832,13.686,0,19.699l0,0c-0.888,2.91-2.955,5.74-3.758,8.766l0,0
			c-1.708,6.441,2.316,13.771,4.926,19.697l0,0c1.225,2.785,2.137,5.258,3.756,8.768l0,0
			C412.469,200.983,419.035,213.003,423.285,207.812"/>
	</g>
</g>
<g id="Y_x5F_SEC_x5F_010" display="none">
	<g id="SPLINE_15_" display="inline">
		<path fill="#99CC00" d="M423.285,206.16c3.902-4.466,7.721-9.222,12.582-12.581l0,0c0.72-0.498,1.463-0.965,2.191-1.463l0,0
			c2.861-1.947,5.527-4.36,7.306-7.305l0,0c3.399-5.631,3.548-13.205,1.641-19.697l0,0c-0.891-3.035-2.231-5.835-2.921-8.766l0,0
			c-1.479-6.286,0.031-13.185,2.051-19.699l0,0c0.923-2.973,1.949-5.864,2.191-8.767l0,0c0.536-6.436-2.795-12.921-3.693-19.697l0,0
			c-1.275-9.625,2.357-19.84,0-28.465l0,0c-2.5-9.148-11.738-16.51-21.348-21.348l0,0c-9.178-4.622-18.693-6.942-28.465-4.599l0,0
			c-12.435,2.982-25.284,13.519-25.947,25.946l0,0c-0.356,6.677,2.806,13.9,0.821,19.697l0,0c-0.584,1.707-1.614,3.289-3.339,4.745
			l0,0c-1.691,1.427-4.051,2.731-4.022,4.022l0,0c0.028,1.289,2.445,2.564,4.022,4.021l0,0c1.569,1.451,2.308,3.082,3.088,4.744l0,0
			c2.901,6.179,6.388,12.787,7.387,19.698l0,0c0.935,6.472-0.312,13.21,0,19.699l0,0c0.141,2.932,0.599,5.814,1.565,8.766l0,0
			c2.519,7.695,8.48,15.854,16.424,16.424l0,0c3.008,0.215,6.301-0.656,8.767,0.73l0,0c1.159,0.652,2.134,1.802,2.923,2.922l0,0
			c1.789,2.541,2.617,4.922,4.193,8.389l0,0C413.694,200.153,419.383,210.628,423.285,206.16"/>
	</g>
</g>
<g id="Y_x5F_SEC_x5F_011" display="none">
	<g id="SPLINE_158_" display="inline">
		<path fill="#99CC00" d="M348.616,108.186c2.312-8.037,9.833-14.189,17.739-17.739l0,0c6.629-2.977,13.526-4.124,19.698-7.387l0,0
			c1.702-0.899,3.349-1.961,4.744-3.339l0,0c1.368-1.352,2.498-3.008,4.022-4.022l0,0c2.782-1.853,6.887-1.569,9.85-3.283l0,0
			c3.974-2.3,5.895-8.194,9.85-9.849l0,0c2.497-1.045,5.807-0.398,8.766,0.73l0,0c7.812,2.981,13.176,9.331,16.424,16.424l0,0
			c2.838,6.2,4.061,12.969,4.924,19.697l0,0c1.218,9.479,1.727,18.883,2.738,28.465l0,0c0.311,2.94,0.668,5.898,0.365,8.767l0,0
			c-0.717,6.79-5.137,13.087-6.566,19.699l0,0c-0.611,2.828-0.678,5.715-1.461,8.766l0,0c-2.049,7.97-9.006,17.047-16.424,16.424
			l0,0c-2.887-0.244-5.841-1.955-8.766-2.191l0,0c-6.869-0.559-13.574,7.009-19.699,7.879l0,0
			c-9.027,1.281-16.796-11.988-22.112-22.111l0,0c-1.605-3.057-2.988-5.826-3.507-8.766l0,0c-1.085-6.148,1.602-13.041,1.313-19.699
			l0,0c-0.167-3.88-1.345-7.679-4.159-10.726l0,0C360.219,119.281,346.304,116.222,348.616,108.186"/>
	</g>
</g>
<g id="Y_x5F_SEC_x5F_012" display="none">
	<g id="SPLINE_17_" display="inline">
		<path fill="#99CC00" d="M403.586,185.911c7.565,5.727,19.395,4.423,28.465,0l0,0c7.397-3.604,12.962-9.283,16.415-16.414l0,0
			c0.688-1.418,1.291-2.895,1.461-4.383l0,0c0.332-2.902-0.984-5.846-2.088-8.766l0,0c-2.541-6.733-3.952-13.349-6.565-19.699l0,0
			c-1.201-2.917-2.655-5.778-3.757-8.767l0,0c-3.287-8.917-3.432-18.959,0-28.465l0,0c2.503-6.933,6.908-13.58,6.566-19.697l0,0
			c-0.484-8.666-10.497-16.27-20.799-20.799l0,0c-6.9-3.033-13.93-4.688-19.698,0l0,0c-3.085,2.508-5.811,6.831-8.767,5.845l0,0
			c-0.739-0.247-1.494-0.825-2.192-1.461l0,0c-2.466-2.246-4.248-5.214-6.574-6.575l0,0c-5.196-3.039-13.112,1.93-19.698,6.566l0,0
			c-7.368,5.187-13.073,9.957-16.424,16.424l0,0c-2.929,5.652-4.059,12.602-4.925,19.697l0,0c-0.374,3.064-0.698,6.156,0,8.768l0,0
			c2.405,8.992,16.941,12.295,21.349,21.348l0,0c0.357,0.734,0.649,1.508,1.096,2.191l0,0c1.271,1.945,3.802,3.176,4.925,4.925l0,0
			c3.186,4.964-4.979,14.102-1.642,19.699l0,0c2.137,3.584,8.989,5.717,9.132,8.766l0,0c0.118,2.538-4.413,5.711-5.845,8.767l0,0
			c-3.154,6.732,8.737,12.896,16.415,16.415l0,0c1.527,0.7,2.89,1.295,4.384,1.461l0,0c1.493,0.165,3.12-0.1,4.383-1.461l0,0
			C400.898,188.468,401.939,184.665,403.586,185.911"/>
	</g>
</g>
<g id="Y_x5F_SEC_x5F_013" display="none">
	<g id="SPLINE_155_" display="inline">
		<path fill="#99CC00" d="M394.82,208.532c-10.419-3.563-21.13-13.123-22.99-23.721l0,0c-1.113-6.34,0.942-13.053,1.642-19.697l0,0
			c0.31-2.947,0.354-5.881,0-8.766l0,0c-0.81-6.606-3.698-12.963-3.831-19.699l0,0c-0.058-2.954,0.415-5.979-0.73-8.767l0,0
			c-0.256-0.625-0.595-1.237-1.094-1.642l0,0c-0.414-0.334-0.938-0.524-1.461-0.73l0,0c-7.841-3.086-15.253-9.585-17.326-17.325l0,0
			c-2.608-9.742,3.24-21.45,11.86-28.465l0,0c2.162-1.759,4.497-3.222,5.466-5.466l0,0c0.561-1.298,0.666-2.856,0.876-4.384l0,0
			c0.446-3.225,1.367-6.306,3.507-8.766l0,0c3.142-3.613,8.911-5.887,13.15-4.384l0,0c4.179,1.482,6.871,6.638,10.932,8.199l0,0
			c4.339,1.669,10.24-0.767,14.576,0.911l0,0c4.005,1.55,6.674,6.611,10.913,7.937l0,0c0.962,0.301,2.009,0.409,2.976,0.743l0,0
			c2.324,0.804,4.205,2.911,5.209,5.209l0,0c1.998,4.575,0.511,9.903,3.558,14.232l0,0c4.181,5.938,16.896,9.998,14.232,14.232l0,0
			c-0.82,1.304-3.1,2.623-4.384,4.383l0,0c-0.957,1.311-1.359,2.865-1.461,4.383l0,0c-0.455,6.819,5.189,12.884,6.565,19.698l0,0
			c1.307,6.471-1.236,13.616,0.821,19.699l0,0c0.779,2.303,2.219,4.453,3.557,6.564l0,0c0.119,0.188,0.236,0.374,0.367,0.551l0,0
			c0.461,0.623,1.08,1.118,1.65,1.65l0,0c6.945,6.486,6.338,18.37,0,28.465l0,0c-0.52,0.827-1.078,1.643-1.65,1.65l0,0
			c-0.573,0.006-1.159-0.795-1.651-1.65l0,0c-5.536-9.632,0.843-26.155,0-26.266l0,0c-1.097-0.142-14.468,27.62-24.622,23.803l0,0
			c-0.726-0.272-1.436-0.707-2.191-1.096l0,0c-2.724-1.398-6.034-2.186-8.766-1.096l0,0c-1.271,0.506-2.414,1.416-3.283,2.463l0,0
			c-0.559,0.67-1.004,1.396-1.462,2.191l0,0C406.091,199.962,401.49,210.813,394.82,208.532"/>
	</g>
</g>
<g id="Y_x5F_SEC_x5F_014" display="none">
	<g id="SPLINE_19_" display="inline">
		<path fill="#99CC00" d="M404.669,53.447c3.996,1.944,9.514,1.457,13.149-2.191l0,0c2.108-2.115,3.585-5.293,5.466-5.466l0,0
			c1.882-0.171,4.17,2.663,5.467,5.466l0,0c4.771,10.32-3.91,20.201,0,28.465l0,0c5.526,11.686,36.23,20.137,28.463,28.465l0,0
			c-1.491,1.598-4.402,3.193-5.465,5.465l0,0c-0.764,1.629-0.578,3.607-0.912,5.466l0,0c-0.558,3.102-2.563,5.877-2.922,8.767l0,0
			c-0.34,2.741,0.801,5.585,0,8.767l0,0c-0.824,3.279-3.713,6.918-2.191,8.767l0,0c0.922,1.119,3.461,1.582,4.627,2.922l0,0
			c0.942,1.083,0.988,2.738,1.398,4.194l0,0c1.65,5.857,9.199,8.47,12.581,12.582l0,0c5.577,6.781-0.177,17.645-7.116,28.465l0,0
			c-1.828,2.85-3.738,5.697-5.465,5.465l0,0c-1.728-0.231-3.273-3.543-5.466-5.465l0,0c-3.932-3.447-9.946-2.424-13.149-4.383l0,0
			c-4.693-2.873-3.359-12.15-4.926-19.699l0,0c-0.377-1.821-0.924-3.543-2.191-4.383l0,0c-0.745-0.494-1.738-0.684-2.732-0.912l0,0
			c-7.552-1.73-15.122-5.711-21.863,0.912l0,0c-2.876,2.825-5.603,7.58-6.602,6.602l0,0c-0.729-0.715-0.542-4.474-1.65-6.602l0,0
			c-0.966-1.851-2.911-2.467-4.925-3.283l0,0c-7.898-3.201-16.845-9.477-16.415-16.415l0,0c0.167-2.701,1.755-5.504,2.191-8.767l0,0
			c0.502-3.749-0.517-8.108-3.283-9.849l0,0c-1.231-0.775-2.809-1.031-4.383-1.461l0,0c-8.27-2.258-16.476-9.306-17.154-17.154l0,0
			c-0.246-2.846,0.498-5.798,0.73-8.768l0,0c0.521-6.647-1.523-13.385,0-19.697l0,0c1.795-7.443,8.549-14.298,16.424-16.424l0,0
			c2.972-0.803,6.104-0.932,8.766,0l0,0c7.478,2.617,11.249,13.602,19.699,14.773l0,0c3.778,0.523,8.494-0.915,9.85-4.925l0,0
			C407.093,65.974,398.763,50.575,404.669,53.447"/>
	</g>
</g>
<g id="Y_x5F_SEC_x5F_015" display="none">
	<g id="SPLINE_152_" display="inline">
		<path fill="#99CC00" d="M423.285,61.982c2.846,7.862,8.966,14.792,17.738,17.738l0,0c3.852,1.293,8.214,1.818,9.85,4.924l0,0
			c0.351,0.666,0.576,1.45,0.877,2.192l0,0c3.844,9.487,19.981,12.03,21.348,21.349l0,0c0.409,2.788-0.505,6.184-2.191,8.766l0,0
			c-2.619,4.011-7.097,6.06-10.958,8.768l0,0c-3.19,2.236-5.959,4.923-8.198,8.198l0,0c-0.591,0.862-1.145,1.767-1.367,2.732l0,0
			c-0.41,1.781,0.308,3.773,1.367,5.466l0,0c3.785,6.046,11.942,8.258,14.232,14.233l0,0c0.997,2.602,0.88,5.918,0,8.766l0,0
			c-2.023,6.539-8.076,10.607-14.232,14.232l0,0c-9.18,5.403-18.59,9.818-28.465,9.487l0,0c-2.895-0.097-5.83-0.603-8.766-0.729l0,0
			c-6.574-0.289-13.151,1.31-19.699,0l0,0c-10.811-2.164-21.547-12.252-22.99-22.99l0,0c-0.389-2.895-0.103-5.838,0-8.766l0,0
			c0.231-6.595-0.473-13.118-1.313-19.699l0,0c-0.428-3.349-0.891-6.712-1.97-9.849l0,0c-0.527-1.531-1.2-3.008-2.191-4.384l0,0
			c-4.073-5.653-13.52-9.622-14.232-14.231l0,0c-0.713-4.61,7.308-9.861,14.232-14.232l0,0c10.561-6.666,18.57-11.286,28.465-11.495
			l0,0c3.217-0.067,6.635,0.331,9.85-1.642l0,0C413.191,75.586,420.28,53.682,423.285,61.982"/>
	</g>
</g>
<g id="Y_x5F_SEC_x5F_016" display="none">
	<g id="SPLINE_21_" display="inline">
		<path fill="#99CC00" d="M394.82,45.79c9.291-1.927,21.4-5.593,28.465,0l0,0c1.918,1.519,3.464,3.721,5.467,5.466l0,0
			c3.934,3.434,9.631,5.104,12.418,8.767l0,0c3.725,4.894,2.26,13.343,4.926,19.698l0,0c1.443,3.446,4.104,6.276,4.923,9.849l0,0
			c0.331,1.442,0.362,3.005,0.731,4.384l0,0c1.674,6.244,10.305,8.707,14.232,14.232l0,0c3.842,5.406,3.178,13.744,0,19.697l0,0
			c-3.25,6.084-9.125,9.678-14.232,14.232l0,0c-4.451,3.967-8.318,8.665-10.52,14.026l0,0c-1.189,2.893-1.893,5.979-2.991,8.973l0,0
			c-3.927,10.701-12.902,20.229-23.72,24.086l0,0c-6.31,2.248-13.248,2.569-19.699,0.82l0,0
			c-11.528-3.126-21.508-12.858-24.907-24.906l0,0c-0.847-2.999-1.285-6.143-0.219-8.766l0,0
			c3.343-8.233,21.489-11.357,19.205-19.699l0,0c-0.146-0.536-0.378-1.096-0.657-1.644l0,0c-5.621-11.059-30.431-18.15-23.537-26.82
			l0,0c0.451-0.567,1.037-1.141,1.65-1.65l0,0c2.892-2.404,6.368-3.373,9.849-4.926l0,0c5.412-2.412,10.837-6.233,13.149-10.957l0,0
			c5.325-10.873-5.833-26.527,0-39.396l0,0C390.498,48.731,392.296,46.314,394.82,45.79"/>
	</g>
</g>
<g id="Y_x5F_SEC_x5F_017" display="none">
	<g id="SPLINE_149_" display="inline">
		<path fill="#99CC00" d="M394.82,29.908c2.892-0.843,6.217,0.381,8.767,2.191l0,0c3.958,2.811,6.041,7.037,8.767,10.958l0,0
			c2.565,3.69,5.701,7.109,9.564,9.109l0,0c1.82,0.942,3.801,1.569,5.751,2.372l0,0c9.217,3.799,17.716,11.534,20.798,20.799l0,0
			c0.483,1.455,0.835,2.947,1.461,4.383l0,0c0.445,1.021,1.031,2.012,1.822,2.732l0,0c1.18,1.077,2.822,1.555,4.383,2.191l0,0
			c6.656,2.72,11.86,8.365,14.773,14.773l0,0c1.26,2.771,2.091,5.688,2.191,8.768l0,0c0.102,3.079-0.527,6.325-2.191,8.766l0,0
			c-2.584,3.791-7.665,5.641-10.958,8.768l0,0c-2.722,2.582-4.224,6.036-8.198,8.198l0,0c-2.097,1.139-4.879,1.919-5.466,2.732l0,0
			c-1.06,1.466,5.013,3.04,9.849,4.925l0,0c9.176,3.574,13.9,8.262,14.773,14.774l0,0c0.365,2.731,0.053,5.785,0,8.766l0,0
			c-0.119,6.721,1.078,13.067,1.641,19.697l0,0c0.251,2.941,0.375,5.938,0,8.768l0,0c-1.255,9.492-8.128,17.1-20.797,20.797l0,0
			c-10.443,3.047-24.824,3.438-22.998,7.668l0,0c0.932,2.162,6.102,5.328,8.766,8.766l0,0c10.307,13.305-16.959,30.668-33.931,33.93
			l0,0c-3.102,0.596-5.858,0.723-8.767,0l0,0c-6.678-1.656-14.156-7.777-14.232-14.232l0,0c-0.077-6.454,7.244-13.242,14.232-14.23
			l0,0c3.043-0.433,6.022,0.236,8.767,0l0,0c8.718-0.756,15.046-10.666,19.698-19.699l0,0c4.049-7.861,6.828-15.059,7.666-22.998
			l0,0c0.304-2.871,0.352-5.841,0-8.768l0,0c-0.417-3.466-1.396-6.873-3.282-9.848l0,0c-1.126-1.777-2.575-3.398-4.384-4.385l0,0
			c-3.188-1.736-7.493-1.488-10.932,0l0,0c-5.385,2.334-8.644,7.713-10.958,13.15l0,0c-1.489,3.499-2.586,7.021-4.926,9.85l0,0
			c-0.495,0.599-1.047,1.167-1.649,1.65l0,0c-2.846,2.277-6.844,2.662-9.85,4.924l0,0c-3.801,2.86-6.015,8.726-9.849,9.85l0,0
			c-2.487,0.729-5.657-0.538-8.766-2.191l0,0c-6.925-3.688-13.548-9.303-14.232-14.232l0,0c-1.368-9.861,21.019-16.98,28.465-28.465
			l0,0c7.47-11.521-0.1-27.436-12.771-38.313l0,0c-8.261-7.092-18.69-12.043-18.615-18.615l0,0
			c0.068-6.059,9.056-13.494,17.154-17.154l0,0c10.016-4.528,18.673-3.28,28.465-9.488l0,0c0.841-0.533,1.689-1.121,1.821-1.822l0,0
			c0.168-0.893-0.829-1.97-1.821-2.732l0,0c-1.48-1.14-2.948-1.582-4.384-2.191l0,0c-6.117-2.599-11.631-8.219-14.773-14.774l0,0
			c-1.359-2.835-2.274-5.845-2.191-8.767l0,0C373.747,41.495,385.157,32.722,394.82,29.908"/>
	</g>
</g>
<g id="Y_x5F_SEC_x5F_018" display="none">
	<g id="SPLINE_23_" display="inline">
		<path fill="#99CC00" d="M394.82,49.605c2.267-0.059,6.496,0.583,6.602,1.65l0,0c0.105,1.068-3.915,2.563-6.602,1.65l0,0
			c-0.923-0.313-1.688-0.908-1.65-1.65l0,0C393.205,50.514,394.042,49.626,394.82,49.605"/>
	</g>
	<g id="SPLINE_24_" display="inline">
		<path fill="#99CC00" d="M423.285,53.078c0.879-1.265,2.68,0.154,4.384,1.461l0,0c10.845,8.315,17.741,12.032,20.798,20.799l0,0
			c1.078,3.094,1.679,6.816,3.283,9.849l0,0c3.107,5.878,9.988,9.159,14.232,14.231l0,0c6.186,7.395,6.773,18.598,7.115,28.465l0,0
			c0.104,2.948,0.184,5.777,0,8.767l0,0c-0.188,3.081-0.657,6.333-2.191,8.767l0,0c-2.383,3.779-7.336,5.584-10.958,8.767l0,0
			c-2.993,2.63-5.077,6.201-8.198,8.199l0,0c-1.646,1.052-3.578,1.668-5.466,2.732l0,0c-2.39,1.346-4.706,3.41-5.467,5.465l0,0
			c-1.935,5.241,6.259,10.428,10.933,16.397l0,0c1.613,2.063,2.808,4.216,1.65,6.603l0,0c-0.396,0.816-1.07,1.664-1.65,1.65l0,0
			c-0.58-0.015-1.066-0.887-1.651-1.65l0,0c-6.632-8.694-25.778-3.604-24.622-9.85l0,0c0.395-2.127,3.146-5.572,2.192-8.766l0,0
			c-0.655-2.191-3.054-4.266-4.384-4.385l0,0c-2.859-0.254-0.772,8.535-2.191,13.15l0,0c-2.211,7.189-12.928,4.252-19.698,6.566l0,0
			c-1.932,0.659-3.54,1.744-4.926,3.283l0,0c-0.546,0.605-1.058,1.283-1.649,1.65l0,0c-1.729,1.07-4.152-0.482-6.602-1.65l0,0
			c-8.215-3.922-16.713-3.512-20.041-10.933l0,0c-1.929-4.3-2.122-11.229,1.46-13.149l0,0c2.447-1.311,6.655-0.285,8.767-2.191l0,0
			c0.615-0.556,1.052-1.361,1.461-2.191l0,0c4.412-8.975,5.421-20.88,0-28.465l0,0c-1.027-1.437-2.285-2.718-2.991-4.485l0,0
			c-0.671-1.683-0.844-3.806-1.753-4.822l0,0c-1.553-1.738-5.259-0.246-8.766,0l0,0c-10.837,0.763-19.768-10.354-19.157-19.156l0,0
			c0.611-8.804,10.765-15.293,19.157-19.157l0,0c6.148-2.831,11.352-4.255,19.698-2.462l0,0c3.686,0.791,7.986,2.21,8.767,0l0,0
			c0.397-1.127-0.12-3.197,0.876-4.384l0,0c0.914-1.089,3.103-1.433,3.283-2.462l0,0c0.104-0.592-0.456-1.411-0.876-2.191l0,0
			C391.855,65.918,416.609,62.687,423.285,53.078"/>
	</g>
</g>
<g id="Y_x5F_SEC_x5F_019" display="none">
	<g id="SPLINE_144_" display="inline">
		<path fill="#99CC00" d="M480.214,106.535c0.738-0.244,1.325,0.65,1.648,1.65l0,0c0.945,2.916-0.353,6.742-1.648,6.601l0,0
			c-1.299-0.141-2.595-4.249-1.651-6.601l0,0C478.886,107.379,479.474,106.778,480.214,106.535"/>
	</g>
	<g id="SPLINE_143_" display="inline">
		<path fill="#99CC00" d="M386.053,179.347c10.113,3.906,15.857,12.206,22.999,22.998l0,0c4.459,6.738,9.463,14.445,4.924,19.699
			l0,0c-1.384,1.602-3.658,2.978-4.383,4.383l0,0c-1.998,3.88,7.833,7.99,10.959,13.149l0,0c1.115,1.841,1.377,3.815,2.732,5.466
			l0,0c1.715,2.086,5.182,3.651,5.467,5.465l0,0c0.282,1.814-2.618,3.879-5.467,5.467l0,0c-10.49,5.848-20.275,5.246-28.465,0l0,0
			c-2.225-1.426-4.33-3.191-5.467-5.467l0,0c-1.655-3.314-1.248-7.707-2.731-10.931l0,0c-2.662-5.782-11.401-7.806-15.342-13.149
			l0,0c-2.148-2.912-2.871-6.811-4.925-9.85l0,0c-3.755-5.555-11.961-8.242-14.232-14.232l0,0c-0.989-2.609-0.853-5.846,0-8.766l0,0
			c1.958-6.708,7.692-11.762,14.232-14.232l0,0C372.755,176.928,379.928,176.98,386.053,179.347"/>
	</g>
	<g id="SPLINE_142_" display="inline">
		<path fill="#99CC00" d="M437.517,145.416c-4.121-0.303-7.182-4.516-8.766-8.767l0,0c-3.752-10.058,0.756-20.317,7.115-28.464l0,0
			c4.751-6.086,10.534-10.993,13.148-17.533l0,0c0.73-1.824,1.213-3.774,2.734-5.466l0,0c1.923-2.14,5.508-3.864,5.465-5.466l0,0
			c-0.041-1.602-3.709-3.081-5.465-5.466l0,0c-3.029-4.113-0.375-10.922-2.191-13.149l0,0c-2.686-3.292-15.134,3.416-19.698,0l0,0
			c-2.554-1.91-2.642-6.984-4.925-9.85l0,0c-0.484-0.607-1.066-1.115-1.65-1.65l0,0c-6.158-5.644-12.443-14.276-19.698-14.773l0,0
			c-2.664-0.182-5.456,0.731-8.767,2.191l0,0c-7.375,3.254-17.315,9.224-14.232,14.232l0,0c0.949,1.543,3.135,2.994,4.383,4.384l0,0
			c6.86,7.63-14.549,13.365-24.082,24.081l0,0c-7.967,8.956-7.638,21.391,0,28.465l0,0c3.738,3.461,9.227,5.639,9.85,9.848l0,0
			c0.392,2.651-1.143,6.106,0,8.768l0,0c1.806,4.206,10.305,6.425,13.15,4.383l0,0c3.599-2.582-1.849-11.983,0-17.533l0,0
			c0.814-2.445,3.047-4.145,5.465-5.465l0,0c1.764-0.964,3.624-1.726,5.467-1.367l0,0c0.998,0.195,1.991,0.72,2.732,1.367l0,0
			c4.256,3.713,0.234,11.471,0,17.533l0,0c-0.151,3.895,1.263,7.089,2.733,10.931l0,0c4.245,11.091,8.972,27.581,22.999,22.999l0,0
			C431.964,156.813,444.208,145.907,437.517,145.416"/>
	</g>
</g>
<g id="Y_x5F_SEC_x5F_020" display="none">
	<g id="SPLINE_29_" display="inline">
		<path fill="#99CC00" d="M394.82,199.044c2.353-1.049,5.573-3.555,5.466-5.465l0,0c-0.108-1.91-3.544-3.227-5.466-5.466l0,0
			c-3.448-4.02-2.034-11.017-4.384-13.149l0,0c-3.339-3.033-14.278,3.762-19.698,0l0,0c-1.706-1.186-2.864-3.414-4.383-4.385l0,0
			c-4.932-3.148-13.656,6.981-14.232,14.232l0,0c-0.577,7.251,6.996,11.622,14.232,14.232l0,0
			C376.588,202.735,386.153,202.907,394.82,199.044"/>
	</g>
	<g id="SPLINE_30_" display="inline">
		<path fill="#99CC00" d="M508.679,149.232c5.713-1.591,12.59-7.444,12.581-12.583l0,0c-0.009-5.14-6.902-9.563-12.581-12.582l0,0
			c-2.994-1.591-5.65-2.791-8.39-4.194l0,0c-7.71-3.949-16.067-9.5-20.075-17.154l0,0c-0.928-1.771-1.622-3.654-2.734-5.465l0,0
			c-3.984-6.496-13.331-12.061-13.149-17.533l0,0c0.183-5.473,9.894-10.854,13.149-17.533l0,0c0.908-1.862,1.316-3.825,2.734-5.466
			l0,0c1.794-2.074,5.207-3.632,5.465-5.466l0,0c0.26-1.834-2.639-3.943-5.465-5.466l0,0c-10.736-5.776-20.494-3.079-28.465-7.116
			l0,0c-5.955-3.014-10.915-9.785-17.533-13.149l0,0c-1.846-0.938-3.82-1.61-5.465-2.732l0,0c-2.084-1.42-3.639-3.558-5.467-5.466
			l0,0c-6.939-7.246-17.809-11.201-28.465-7.116l0,0c-6.463,2.478-12.847,7.91-12.583,12.582l0,0
			c0.266,4.671,7.177,8.579,12.583,12.581l0,0c6.659,4.93,11.033,10,17.533,13.15l0,0c1.813,0.878,3.79,1.607,5.466,2.732l0,0
			c2.12,1.424,3.756,3.482,5.466,5.466l0,0c4.139,4.8,8.711,9.153,11.689,14.61l0,0c1.492,2.736,2.584,5.748,4.193,8.389l0,0
			c3.053,5.009,7.967,8.677,12.582,12.582l0,0c5.684,4.81,10.912,9.979,17.532,13.149l0,0c1.846,0.885,3.8,1.613,5.466,2.733l0,0
			c2.107,1.416,3.757,3.456,5.467,5.465l0,0c4.138,4.863,8.635,9.538,11.688,14.611l0,0c1.531,2.543,2.697,5.186,4.193,8.388l0,0
			C498.936,142.727,502.964,150.821,508.679,149.232"/>
	</g>
	<g id="SPLINE_31_" display="inline">
		<path fill="#99CC00" d="M446.284,278.972c0.319-2.557,2.824-5.416,5.466-5.465l0,0c2.641-0.052,5.42,2.707,5.465,5.465l0,0
			c0.047,2.758-2.641,5.517-5.465,5.465l0,0C448.925,284.388,445.964,281.528,446.284,278.972"/>
	</g>
	<g id="SPLINE_32_" display="inline">
		<path fill="#99CC00" d="M394.82,273.507c2.557,0.318,5.415,2.824,5.466,5.465l0,0c0.05,2.641-2.709,5.42-5.466,5.465l0,0
			c-2.758,0.047-5.517-2.641-5.467-5.465l0,0C389.405,276.147,392.262,273.187,394.82,273.507"/>
	</g>
</g>
<g id="Y_x5F_SEC_x5F_023" display="none">
	<g id="SPLINE_134_" display="inline">
		<path fill="#99CC00" d="M465.982,116.951c0.832-6.657,7.354-14.101,14.232-14.232l0,0c6.877-0.131,14.111,7.051,14.232,14.232l0,0
			c0.118,7.182-6.879,14.363-14.232,14.232l0,0C472.861,131.053,465.15,123.609,465.982,116.951"/>
	</g>
</g>
<g id="Y_x5F_SEC_x5F_024" display="none">
	<g id="SPLINE_34_" display="inline">
		<path fill="#99CC00" d="M353.773,250.507c0.735-5.885,6.501-12.466,12.582-12.582l0,0c6.081-0.115,12.477,6.233,12.582,12.582l0,0
			c0.105,6.35-6.081,12.699-12.582,12.583l0,0C359.854,262.974,353.037,256.393,353.773,250.507"/>
	</g>
	<g id="SPLINE_35_" display="inline">
		<path fill="#99CC00" d="M380.587,136.649c0.832-6.657,7.354-14.101,14.232-14.232l0,0c6.879-0.131,14.113,7.052,14.232,14.232l0,0
			c0.119,7.182-6.878,14.364-14.232,14.231l0,0C387.465,150.751,379.755,143.307,380.587,136.649"/>
	</g>
	<g id="SPLINE_36_" display="inline">
		<path fill="#99CC00" d="M394.82,17.326c2.437-0.838,4.112,2.443,5.466,5.466l0,0c4.983,11.128,5.589,18.73,0,28.464l0,0
			c-1.518,2.644-3.492,5.443-5.466,5.466l0,0c-1.975,0.022-3.949-2.733-5.467-5.466l0,0c-5.588-10.061-4.983-19.798,0-28.464l0,0
			C390.707,20.438,392.382,18.164,394.82,17.326"/>
	</g>
</g>
<g id="Y_x5F_SEC_x5F_025" display="none">
	<g id="SPLINE_129_" display="inline">
		<path fill="#99CC00" d="M366.355,45.79c2.557,0.319,5.416,2.824,5.466,5.466l0,0c0.05,2.642-2.708,5.42-5.466,5.466l0,0
			c-2.758,0.046-5.516-2.642-5.466-5.466l0,0C360.939,48.432,363.798,45.471,366.355,45.79"/>
	</g>
	<g id="SPLINE_128_" display="inline">
		<path fill="#99CC00" d="M451.75,74.255c2.556,0.319,5.415,2.824,5.465,5.466l0,0c0.051,2.642-2.707,5.42-5.465,5.466l0,0
			c-2.759,0.046-5.518-2.642-5.466-5.466l0,0C446.333,76.896,449.193,73.936,451.75,74.255"/>
	</g>
	<g id="SPLINE_127_" display="inline">
		<path fill="#99CC00" d="M394.82,131.184c2.557,0.319,5.415,2.824,5.466,5.466l0,0c0.05,2.642-2.709,5.42-5.466,5.466l0,0
			c-2.758,0.046-5.517-2.642-5.467-5.466l0,0C389.405,133.825,392.262,130.864,394.82,131.184"/>
	</g>
	<g id="SPLINE_126_" display="inline">
		<path fill="#99CC00" d="M480.214,131.184c2.556,0.319,5.415,2.824,5.465,5.466l0,0c0.05,2.642-2.707,5.42-5.465,5.466l0,0
			c-2.759,0.046-5.518-2.642-5.467-5.466l0,0C474.798,133.825,477.656,130.864,480.214,131.184"/>
	</g>
	<g id="SPLINE_125_" display="inline">
		<path fill="#99CC00" d="M359.753,228.644c1.745-2.127,3.18-4.494,4.951-6.6l0,0c0.501-0.597,1.028-1.172,1.65-1.651l0,0
			c2.934-2.259,7.966-2.372,9.849-4.925l0,0c3.369-4.567-3.335-16.945,0-19.697l0,0c2.257-1.862,9.114,0.684,13.149-2.191l0,0
			c2.341-1.669,3.732-5.16,5.467-5.466l0,0c1.733-0.308,3.808,2.567,5.466,5.466l0,0c6.107,10.668,6.579,21.617,0,28.465l0,0
			c-1.787,1.858-4.093,3.414-5.466,5.465l0,0c-0.871,1.299-1.366,2.798-2.192,4.383l0,0c-1.535,2.949-4.215,6.197-6.442,6.443l0,0
			c-6.029,0.667-8.76-20.643-19.83-14.643l0,0C362.649,225.701,358.009,230.771,359.753,228.644"/>
	</g>
</g>
<g id="Y_x5F_SEC_x5F_027" display="none">
	<g id="SPLINE_42_" display="inline">
		<path fill="#99CC00" d="M394.82,45.79c2.557,0.319,5.415,2.824,5.466,5.466l0,0c0.05,2.642-2.709,5.42-5.466,5.466l0,0
			c-2.758,0.046-5.517-2.642-5.467-5.466l0,0C389.405,48.432,392.262,45.471,394.82,45.79"/>
	</g>
	<g id="SPLINE_43_" display="inline">
		<path fill="#99CC00" d="M423.285,216.577c2.557,0.318,5.415,2.824,5.467,5.467l0,0c0.049,2.641-2.709,5.42-5.467,5.465l0,0
			c-2.759,0.045-5.516-2.641-5.466-5.465l0,0C417.869,219.22,420.728,216.257,423.285,216.577"/>
	</g>
</g>
<g id="Y_x5F_SEC_x5F_028" display="none">
	<g id="SPLINE_117_" display="inline">
		<path fill="#99CC00" d="M259.613,193.579c-1.594-9.938,10.182-18.427,21.348-21.35l0,0c10.013-2.619,19.536-0.762,26.264-6.564
			l0,0c0.193-0.168,0.384-0.34,0.55-0.551l0,0c1.449-1.839,0.958-6.515,1.65-6.602l0,0c0.691-0.088,2.565,4.416,1.651,6.602l0,0
			c-0.366,0.874-1.178,1.378-1.926,1.926l0,0c-7.522,5.51-8.478,15.463-6.841,26.539l0,0c0.951,6.43,2.774,13.238,7.116,14.232l0,0
			c3.566,0.814,8.832-2.293,11.689-5.846l0,0c2.05-2.549,2.861-5.327,4.194-8.387l0,0c2.529-5.807,6.937-12.626,12.582-12.582l0,0
			c5.645,0.043,12.526,6.947,12.582,12.582l0,0c0.056,5.633-6.714,9.997-12.582,12.581l0,0c-3.092,1.362-5.934,2.229-8.388,4.194
			l0,0c-3.42,2.737-6.088,7.606-5.844,11.689l0,0c0.75,12.575,29.124,17.695,28.464,28.463l0,0
			c-0.33,5.385-7.917,12.18-14.232,14.232l0,0c-18.945,6.156-26.437-30.377-42.696-42.695l0,0
			c-4.285-3.248-9.179-4.813-14.232-7.117l0,0C271.373,210.554,261.208,203.515,259.613,193.579"/>
	</g>
	<g id="SPLINE_116_" display="inline">
		<path fill="#99CC00" d="M337.89,45.79c2.459,0.769,4.971,3.324,5.466,5.466l0,0c0.99,4.284-6.087,6.915-10.931,10.932l0,0
			c-5.868,4.865-8.461,11.764-6.575,17.533l0,0c4.055,12.403,28.81,19.592,28.465,28.465l0,0
			c-0.199,5.118-8.755,10.798-16.424,16.424l0,0c-6.183,4.534-11.789,9.033-17.532,6.574l0,0c-2.372-1.016-4.766-3.217-5.466-5.465
			l0,0c-1.697-5.449,6.544-11.177,6.574-17.533l0,0c0.028-5.781-6.733-12.084-12.041-12.041l0,0
			c-5.148,0.041-8.928,6.053-11.31,12.041l0,0c-2.84,7.14-3.694,14.244,0,19.697l0,0c1.976,2.917,5.253,5.361,5.845,8.767l0,0
			c1.568,9.024-15.717,24.799-20.807,18.616l0,0c-0.894-1.085-1.412-2.848-2.192-4.385l0,0c-3.205-6.307-10.836-8.796-14.232-14.231
			l0,0c-1.559-2.495-2.225-5.61-2.922-8.767l0,0c-2.973-13.452-6.515-27.619,0-39.396l0,0c1.708-3.089,4.108-6.013,7.306-7.306l0,0
			c1.43-0.578,3.019-0.83,4.383-1.461l0,0c2.283-1.056,3.936-3.174,5.466-5.466l0,0c2.778-4.163,5.15-8.903,8.767-10.958l0,0
			c5.076-2.884,12.603-0.474,19.698,0l0,0c6.745,0.45,13.099-0.85,17.533-6.575l0,0C330.62,51.995,332.972,44.252,337.89,45.79"/>
	</g>
</g>
<g id="Y_x5F_SEC_x5F_029" display="none">
	<g id="SPLINE_46_" display="inline">
		<path fill="#99CC00" d="M303.96,79.721c6.782-14.486,20.91-40.986,33.93-33.931l0,0c2.098,1.137,4.166,3.144,5.466,5.466l0,0
			c8.069,14.414-13.484,40.949-33.93,33.931l0,0C306.132,84.056,302.868,82.055,303.96,79.721"/>
	</g>
	<g id="SPLINE_47_" display="inline">
		<path fill="#99CC00" d="M366.355,209.976c3.267,2.703,5.759,7.6,4.022,12.068l0,0c-0.777,1.996-2.399,3.908-4.022,4.021l0,0
			c-1.623,0.113-3.246-1.572-4.022-4.021l0,0C360.596,216.566,363.089,207.272,366.355,209.976"/>
	</g>
	<g id="SPLINE_48_" display="inline">
		<path fill="#99CC00" d="M338.148,238.183c5.767,0.705,12.133,6.453,12.324,12.324l0,0c0.195,5.996-6.046,12.119-12.582,12.583l0,0
			c-6.536,0.463-13.366-4.734-12.582-12.583l0,0c0.784-7.848,9.183-18.346,12.582-12.582l0,0
			C337.96,238.044,338.027,238.169,338.148,238.183"/>
	</g>
</g>
<g id="Y_x5F_SEC_x5F_030" display="none">
	<g id="SPLINE_50_" display="inline">
		<path fill="#99CC00" d="M238.265,116.951c8.134-4.479,15.032-11.955,19.698-19.697l0,0c3.284-5.449,5.462-11.031,8.767-17.533l0,0
			c3.393-6.678,7.973-14.326,14.232-14.232l0,0c6.259,0.094,14.198,7.93,14.232,14.232l0,0c0.035,6.302-7.834,11.071-14.232,14.232
			l0,0c-6.231,3.078-11.067,4.632-17.533,8.766l0,0c-2.549,1.631-5.353,3.662-5.466,5.467l0,0c-0.182,2.893,6.555,5.203,8.767,8.766
			l0,0c3.589,5.785-4.75,14.869-14.232,14.232l0,0C243.014,130.547,232.388,120.188,238.265,116.951"/>
	</g>
	<g id="SPLINE_51_" display="inline">
		<path fill="#99CC00" d="M301.038,153.426c-3.992-4.158-5.818-11.044-4.194-16.776l0,0c1.671-5.897,6.994-10.573,12.582-12.582l0,0
			c9.215-3.311,19.15,0.634,28.464,7.116l0,0c2.454,1.708,4.865,3.592,5.466,5.466l0,0c2.648,8.259-29.832,16.34-24.081,24.082l0,0
			c1.047,1.408,3.36,2.807,4.383,4.383l0,0c3.322,5.119-6.957,12.121-14.232,14.232l0,0c-3.168,0.92-5.769,0.91-8.766,0l0,0
			c-6.883-2.092-15.868-8.94-14.232-14.232l0,0c0.504-1.631,2.015-3.113,4.383-4.383l0,0
			C295.613,158.154,303.94,156.448,301.038,153.426"/>
	</g>
	<g id="SPLINE_52_" display="inline">
		<path fill="#99CC00" d="M252.497,139.383c3.422,1.277,6.481,3.787,8.766,6.574l0,0c2.927,3.57,4.585,7.597,8.767,10.958l0,0
			c3.455,2.779,8.632,5.104,8.199,8.199l0,0c-0.184,1.308-1.369,2.754-2.192,4.383l0,0c-3.412,6.751-0.61,16.659-4.924,19.699l0,0
			c-2.946,2.074-9.207,0.947-13.15,4.383l0,0c-2.199,1.914-3.676,5.248-5.466,5.465l0,0c-1.79,0.217-3.891-2.684-5.466-5.465l0,0
			c-5.977-10.561-4.363-19.417-7.116-28.465l0,0c-0.459-1.512-1.042-3.028-2.191-4.383l0,0c-1.455-1.715-3.819-3.172-4.383-4.383
			l0,0c-1.277-2.746,6.673-4.241,10.958-8.768l0,0C247.838,143.842,248.876,138.03,252.497,139.383"/>
	</g>
</g>
<g id="Y_x5F_SEC_x5F_031" display="none">
	<g id="SPLINE_110_" display="inline">
		<path fill="#99CC00" d="M258.298,127.883c6.678,7.944,13.479,16.642,22.663,21.35l0,0c1.445,0.739,2.95,1.383,4.383,2.191l0,0
			c3.85,2.172,7.184,5.548,9.308,9.308l0,0c0.791,1.398,1.413,2.852,2.191,4.383l0,0c2.824,5.562,7.692,12.17,12.582,12.581l0,0
			c4.89,0.413,9.8-5.37,12.582-12.581l0,0c2.488-6.449,3.272-14.041,7.116-14.233l0,0c2.232-0.111,5.496,2.272,8.766,2.923l0,0
			c8.587,1.707,17.224-8.537,17.155-17.154l0,0c-0.069-8.617-8.841-15.61-17.155-17.153l0,0c-6.75-1.256-13.195,1.081-19.698,0l0,0
			c-1.525-0.255-3.053-0.696-4.383-1.463l0,0c-1.784-1.026-3.211-2.635-4.383-4.383l0,0c-1.155-1.723-2.062-3.58-2.732-5.465l0,0
			c-1.238-3.479-1.673-7.054-2.733-10.932l0,0c-1.997-7.305-6.208-15.679-13.15-16.656l0,0c-1.462-0.207-3.045-0.084-4.383-0.877
			l0,0c-2.313-1.371-3.893-5.479-5.466-5.466l0,0c-1.573,0.013-3.139,4.146-5.466,5.466l0,0c-1.345,0.764-2.945,0.587-4.383,0.877
			l0,0c-3.59,0.723-6.173,4.35-7.89,7.89l0,0c-3.124,6.441-3.376,12.596-4.924,19.698l0,0
			C256.796,115.074,254.073,122.857,258.298,127.883"/>
	</g>
</g>
<g id="Y_x5F_SEC_x5F_032" display="none">
	<g id="SPLINE_105_" display="inline">
		<path fill="#99CC00" d="M474.748,136.649c-1.563-9.358-4.824-20.188,0-28.464l0,0c1.311-2.248,3.217-4.307,5.467-5.467l0,0
			c13.964-7.197,41.162,20.271,33.93,33.931l0,0c-1.166,2.201-3.225,4.042-5.465,5.466l0,0c-8.258,5.24-19.008,4.794-28.465,0l0,0
			C477.644,140.813,475.171,139.19,474.748,136.649"/>
	</g>
	<g id="SPLINE_104_" display="inline">
		<path fill="#99CC00" d="M318.192,65.488c6.583,1.295,14.041,7.576,14.232,14.232l0,0c0.192,6.656-6.882,13.686-14.232,14.232l0,0
			c-3.201,0.237-6.455-0.754-8.767,0l0,0c-4.195,1.368-5.286,8.491-7.116,14.232l0,0c-1.039,3.26-2.317,6.074-2.191,8.766l0,0
			c0.153,3.279,2.39,6.376,4.924,9.85l0,0c1.427,1.955,2.948,4.029,4.383,4.383l0,0c2.871,0.705,5.396-5.479,8.767-8.767l0,0
			c5.355-5.223,12.844-3.131,19.698,0l0,0c7.004,3.199,13.344,7.484,14.232,14.232l0,0c1.503,11.419-12.602,29.893-24.081,24.082
			l0,0c-6.268-3.174-11.753-13.587-13.149-13.15l0,0c-1.317,0.411,1,10.469,0,17.533l0,0c-1.24,8.755-7.579,12.91-14.232,16.424l0,0
			c-6.217,3.282-12.71,6.004-19.698,4.924l0,0c-10.391-1.605-21.877-11.614-21.348-21.348l0,0c0.158-2.914,1.393-5.803,2.192-8.766
			l0,0c1.74-6.464,1.409-13.287,0-19.699l0,0c-0.647-2.941-1.521-5.796-2.192-8.767l0,0c-1.463-6.475-1.965-13.5,0-19.697l0,0
			c3.012-9.5,11.82-17.059,21.348-21.349l0,0c5.021-2.261,10.243-3.614,14.232-7.116l0,0c5.046-4.429,8.121-12.295,14.232-14.232
			l0,0C312.087,64.645,315.325,64.925,318.192,65.488"/>
	</g>
</g>
<g id="Y_x5F_SEC_x5F_033" display="none">
	<g id="SPLINE_55_" display="inline">
		<path fill="#99CC00" d="M360.889,193.579c0.32-2.557,2.824-5.416,5.466-5.466l0,0c2.642-0.052,5.42,2.707,5.466,5.466l0,0
			c0.045,2.758-2.642,5.516-5.466,5.465l0,0C363.531,198.994,360.569,196.135,360.889,193.579"/>
	</g>
	<g id="SPLINE_57_" display="inline">
		<path fill="#99CC00" d="M366.355,102.719c8.947-3.156,18.479-5.26,28.465,0l0,0c2.712,1.429,5.457,3.4,5.466,5.467l0,0
			c0.009,2.065-2.719,4.227-5.466,5.465l0,0c-10.116,4.563-20.496-3.369-28.465,0l0,0c-3.471,1.469-6.485,5.08-8.767,8.767l0,0
			c-2.929,4.732-4.651,9.589-7.116,14.232l0,0c-4.756,8.964-12.272,17.139-21.348,22.079l0,0
			c-5.866,3.193-12.384,5.034-19.698,2.462l0,0c-7.75-2.726-16.396-10.41-19.698-7.387l0,0c-1.761,1.613-2.002,6.271-3.939,10.506
			l0,0c-1.179,2.576-2.985,4.996-4.827,4.826l0,0c-1.535-0.142-3.094-2.081-4.022-4.021l0,0c-1.695-3.541-1.289-7.08-3.283-9.849
			l0,0c-2.677-3.716-9.675-6.047-9.849-9.85l0,0c-0.115-2.523,2.773-5.695,2.922-8.767l0,0c0.149-3.071-2.44-6.042-2.922-8.767l0,0
			c-1.234-6.979,11.366-12.341,13.132-19.697l0,0c0.774-3.227-0.535-6.836-3.283-9.85l0,0c-3.688-4.041-9.965-7.01-9.849-9.849l0,0
			c0.122-2.979,7.28-5.816,11.688-8.767l0,0c2.333-1.561,3.896-3.153,5.466-5.466l0,0c2.851-4.198,5.724-10.77,8.767-10.958l0,0
			c3.02-0.188,6.208,5.913,9.849,9.849l0,0c2.878,3.112,6.042,4.871,9.849,4.925l0,0c3.807,0.053,8.259-1.6,9.849-4.925l0,0
			c2.845-5.948-3.466-17.25,0-19.698l0,0c2.346-1.656,9.169,0.743,13.15-2.191l0,0c2.308-1.701,3.661-5.195,5.465-5.466l0,0
			c1.805-0.271,4.063,2.684,5.466,5.466l0,0c5.17,10.246-1.23,18.174,0,28.465l0,0C344.762,91.48,356.131,106.327,366.355,102.719"
			/>
	</g>
</g>
<g id="Y_x5F_SEC_x5F_034" display="none">
	<g id="SPLINE_98_" display="inline">
		<path fill="#99CC00" d="M357.588,122.417c6.657,0.833,14.102,7.354,14.232,14.232l0,0c0.131,6.878-7.051,14.113-14.232,14.231l0,0
			c-7.181,0.119-14.363-6.877-14.232-14.231l0,0C343.487,129.295,350.932,121.585,357.588,122.417"/>
	</g>
	<g id="SPLINE_97_" display="inline">
		<path fill="#99CC00" d="M423.285,102.719c2.557,0.32,5.415,2.824,5.467,5.467l0,0c0.049,2.641-2.709,5.42-5.467,5.465l0,0
			c-2.759,0.046-5.516-2.641-5.466-5.465l0,0C417.869,105.361,420.728,102.399,423.285,102.719"/>
	</g>
	<g id="SPLINE_96_" display="inline">
		<path fill="#99CC00" d="M357.588,202.886c1.115,1.74,2.666,3.295,4.384,4.383l0,0c1.358,0.861,2.82,1.432,4.383,2.191l0,0
			c5.675,2.764,12.679,8.038,12.582,12.584l0,0c-0.097,4.543-7.296,8.357-12.582,12.581l0,0c-3.255,2.601-5.785,5.355-8.767,6.574
			l0,0c-5.524,2.259-12.598-0.757-19.698-4.923l0,0c-7.037-4.133-14.1-9.395-14.232-14.232l0,0
			c-0.132-4.839,6.667-9.254,14.232-14.232l0,0C345.523,202.786,353.938,197.188,357.588,202.886"/>
	</g>
	<g id="SPLINE_95_" display="inline">
		<path fill="#99CC00" d="M314.892,165.114c4.104,2.122,9.249-0.754,13.149-4.383l0,0c7.142-6.649,10.106-15.829,8.027-24.082l0,0
			c-0.748-2.968-2.149-5.817-2.557-8.767l0,0c-0.88-6.361,2.86-13.19,0-19.697l0,0c-1.359-3.094-4.21-6.113-3.288-8.768l0,0
			c0.458-1.314,1.843-2.541,3.283-3.282l0,0c1.433-0.738,2.92-0.996,4.383-1.461l0,0c6.697-2.131,12.892-8.612,14.955-14.954l0,0
			c2.926-8.998-2.465-17.717-9.489-28.465l0,0c-1.809-2.769-3.727-5.672-5.466-5.466l0,0c-1.738,0.206-3.299,3.523-5.465,5.466l0,0
			c-3.886,3.484-9.721,2.55-13.15,4.384l0,0c-6.279,3.357-4.486,15.997-8.027,24.081l0,0c-2.156,4.923-6.291,8.156-10.931,10.932
			l0,0c-4.385,2.623-9.222,4.836-11.689,8.766l0,0c-1.7,2.711-2.275,6.235-3.835,9.315l0,0
			c-6.114,12.069-27.367,17.29-27.917,27.916l0,0c-0.288,5.589,5.149,12.672,6.566,19.699l0,0c0.603,2.988,0.478,5.967,1.096,8.766
			l0,0c1.625,7.355,8.383,13.461,16.424,16.424l0,0c6.819,2.512,14.56,2.764,19.698,0l0,0c3.661-1.969,6-5.471,8.766-10.959l0,0
			C310.95,167.558,312.603,163.931,314.892,165.114"/>
	</g>
</g>
<g id="Y_x5F_SEC_x5F_035" display="none">
	<g id="SPLINE_62_" display="inline">
		<path fill="#99CC00" d="M366.355,45.79c2.557,0.319,5.416,2.824,5.466,5.466l0,0c0.05,2.642-2.708,5.42-5.466,5.466l0,0
			c-2.758,0.046-5.516-2.642-5.466-5.466l0,0C360.939,48.432,363.798,45.471,366.355,45.79"/>
	</g>
	<g id="SPLINE_63_" display="inline">
		<path fill="#99CC00" d="M394.82,102.719c2.557,0.32,5.415,2.824,5.466,5.467l0,0c0.05,2.641-2.709,5.42-5.466,5.465l0,0
			c-2.758,0.046-5.517-2.641-5.467-5.465l0,0C389.405,105.361,392.262,102.399,394.82,102.719"/>
	</g>
	<g id="SPLINE_64_" display="inline">
		<path fill="#99CC00" d="M318.192,63.297c1.424,4.419,5.599,7.715,9.849,9.849l0,0c3.36,1.688,6.767,2.648,9.849,4.925l0,0
			c0.653,0.482,1.292,1.024,1.651,1.65l0,0c1.044,1.826-0.296,4.371-1.651,6.602l0,0c-2.432,4.006-4.908,6.991-5.465,10.932l0,0
			c-0.672,4.743,1.438,10.869,5.465,13.664l0,0c1.342,0.932,2.896,1.492,4.383,2.191l0,0c6.344,2.982,11.487,8.474,14.774,14.773
			l0,0c1.454,2.787,2.544,5.73,2.922,8.767l0,0c0.359,2.89,0.072,5.863-0.731,8.767l0,0c-2.757,9.966-11.6,19.112-21.349,21.349l0,0
			c-9.191,2.109-19.188-1.924-28.464,0l0,0c-3.588,0.744-7.069,2.379-9.849,4.925l0,0c-3.517,3.22-5.912,7.896-9.849,9.849l0,0
			c-2.486,1.232-5.588,1.379-8.767,0.73l0,0c-8.765-1.79-18.115-9.631-17.154-17.154l0,0c0.366-2.865,2.228-5.686,2.922-8.766l0,0
			c1.48-6.57-2.342-14.329,0-19.699l0,0c2.392-5.486,11.219-8.476,14.232-14.232l0,0c1.503-2.872,1.559-6.434,1.97-9.849l0,0
			c1.058-8.783,4.472-16.602,9.34-24.081l0,0c1.948-2.992,4.128-5.93,7.306-7.306l0,0c1.421-0.615,3.042-0.918,4.383-1.461l0,0
			c2.245-0.908,3.71-2.489,5.465-5.466l0,0C312.613,68.851,316.758,58.845,318.192,63.297"/>
	</g>
</g>
<g id="Y_x5F_SEC_x5F_036" display="none">
	<g id="SPLINE_84_" display="inline">
		<path fill="#99CC00" d="M417.819,136.649c0.319-2.557,2.824-5.415,5.466-5.466l0,0c2.643-0.05,5.42,2.708,5.467,5.466l0,0
			c0.045,2.758-2.643,5.517-5.467,5.466l0,0C420.46,142.064,417.5,139.207,417.819,136.649"/>
	</g>
	<g id="SPLINE_81_" display="inline">
		<path fill="#99CC00" d="M366.355,37.023c6.463,1.803,14.068,8.261,14.232,14.232l0,0c0.163,5.973-7.117,11.459-14.232,14.232l0,0
			c-3.78,1.474-7.513,2.182-9.563,4.781l0,0c-1.837,2.33-2.322,6.18-1.575,9.451l0,0c1.582,6.932,8.691,11.276,10.228,17.533l0,0
			c0.831,3.381,0.034,7.32-0.911,10.932l0,0c-0.398,1.521-0.822,2.982-1.46,4.383l0,0c-0.678,1.484-1.598,2.898-2.192,4.383l0,0
			c-2.39,5.966,0.465,13.059,0,19.698l0,0c-0.702,10.038-8.993,19.041-8.757,28.465l0,0c0.155,6.203,4.004,12.588,8.766,17.532l0,0
			c3.757,3.901,8.082,6.903,10.932,10.933l0,0c5.248,7.414,5.499,18.3,0,28.465l0,0c-1.493,2.76-3.411,5.467-5.466,5.465l0,0
			c-2.055-0.002-4.249-2.71-5.466-5.465l0,0c-4.48-10.152,4.288-20.951,0-28.465l0,0c-1.164-2.041-3.291-3.84-5.465-5.466l0,0
			c-5.514-4.125-11.335-7.142-17.533-8.767l0,0c-9-2.361-18.798-1.797-28.464,0l0,0c-3.179,0.59-6.344,1.313-8.766,3.287l0,0
			c-3.603,2.936-5.56,8.638-9.849,9.85l0,0c-1.392,0.393-3.028,0.312-4.383,1.096l0,0c-2.318,1.338-3.813,5.204-5.466,5.465l0,0
			c-1.653,0.261-3.464-3.084-5.466-5.465l0,0c-3.859-4.594-8.423-5.615-12.054-8.768l0,0c-5.058-4.392-8.301-12.922-6.566-19.697
			l0,0c0.782-3.057,2.577-5.754,3.288-8.766l0,0c1.496-6.337-1.807-14.058,0-19.699l0,0c3.125-9.753,21.52-13.294,24.082-24.081l0,0
			c0.334-1.408,0.399-2.938,0.73-4.383l0,0c0.708-3.089,2.635-5.784,3.652-8.768l0,0c2.118-6.207,0.295-13.662,1.642-19.697l0,0
			c1.846-8.271,9.648-13.875,19.156-19.156l0,0c7.009-3.894,14.945-7.611,19.698-3.283l0,0c1.476,1.344,2.645,3.462,4.383,4.383l0,0
			c1.247,0.66,2.786,0.704,4.383,0.73l0,0c3.445,0.057,7.16,0.03,9.451-1.575l0,0c2.556-1.791,3.339-5.548,4.781-9.563l0,0
			C354.838,43.697,359.893,35.221,366.355,37.023"/>
	</g>
</g>
<g id="Y_x5F_SEC_x5F_037" display="none">
	<g id="SPLINE_67_" display="inline">
		<path fill="#99CC00" d="M366.355,236.276c6.604-1.184,11.149-7.299,14.232-14.232l0,0c4.359-9.809,5.795-21.264,0-28.465l0,0
			c-4.099-5.094-11.813-8.061-14.232-14.232l0,0c-0.555-1.417-0.832-3.004-1.461-4.383l0,0c-1.896-4.162-6.996-6.451-9.849-9.85l0,0
			c-5.83-6.945-2.277-18.521,0-28.465l0,0c0.37-1.614,0.706-3.185,1.461-4.384l0,0c1.8-2.854,5.982-3.587,9.849-4.924l0,0
			c9.513-3.29,17.112-10.238,19.156-19.156l0,0c0.662-2.887,0.741-5.979,0-8.768l0,0c-1.766-6.645-8.188-11.561-14.773-14.773l0,0
			c-3.471-1.692-6.986-2.912-9.85-4.924l0,0c-5.234-3.678-8.291-10.002-14.232-14.232l0,0c-5.246-3.736-12.742-5.838-17.533-2.922
			l0,0c-3.754,2.285-5.847,7.652-9.849,9.849l0,0c-2.982,1.638-7.025,1.514-9.849,3.283l0,0c-1.547,0.97-2.728,2.507-4.022,4.022
			l0,0c-5.385,6.303-12.724,12.203-13.132,19.697l0,0c-0.152,2.785,0.654,5.791,0.73,8.768l0,0c0.078,3.007-0.587,5.984-1.461,8.766
			l0,0c-0.998,3.177-2.266,6.096-5.114,8.768l0,0c-4.338,4.067-12.342,7.559-10.932,10.931l0,0c0.705,1.687,3.764,3.343,5.466,5.466
			l0,0c3.178,3.963,1.629,9.55,2.372,14.233l0,0c0.489,3.082,1.971,5.771,3.653,8.766l0,0c5.622,10.008,13.488,23.42,22.439,22.439
			l0,0c6.02-0.659,12.529-7.825,19.698-8.207l0,0c3.104-0.166,6.332,0.939,8.766,2.922l0,0c3.67,2.986,5.536,7.965,9.85,9.848l0,0
			c1.43,0.626,3.13,0.912,4.383,1.463l0,0c7.715,3.394-1.562,16.887,0,28.465l0,0C353.227,230.229,359.75,237.458,366.355,236.276"
			/>
	</g>
</g>
<g id="Y_x5F_SEC_x5F_038">
	<g id="SPLINE_74_">
		<path fill="#99CC00" d="M366.355,216.577c2.557,0.318,5.416,2.824,5.466,5.467l0,0c0.05,2.641-2.708,5.42-5.466,5.465l0,0
			c-2.758,0.045-5.516-2.641-5.466-5.465l0,0C360.939,219.22,363.798,216.257,366.355,216.577"/>
	</g>
	<g id="SPLINE_73_">
		<path fill="#99CC00" d="M337.89,181.253c11.193-2.573,23.663-13.635,23.811-24.904l0,0c0.085-6.494-3.92-13.058-2.462-19.699l0,0
			c0.36-1.64,1.052-3.283,2.191-4.384l0,0c1.28-1.234,3.123-1.783,4.925-2.462l0,0c10.005-3.769,18.729-11.565,21.618-21.618l0,0
			c1.877-6.528,1.294-14.007-2.462-19.698l0,0c-2.073-3.142-5.112-5.739-6.574-8.767l0,0c-3.797-7.865,3.053-18.641,0-28.465l0,0
			c-1.909-6.141-7.688-11.91-12.582-12.582l0,0c-8.973-1.232-14.976,14.663-23.784,22.322l0,0
			c-9.639,8.384-22.638,6.904-33.146,13.259l0,0c-2.275,1.376-4.433,3.119-5.465,5.466l0,0c-3.802,8.641,7.668,25.459,0,28.465l0,0
			c-1.218,0.477-2.917,0.605-4.383,1.096l0,0c-3.521,1.175-5.702,4.429-7.671,7.67l0,0c-3.89,6.403-6.958,12.757-8.442,19.698l0,0
			c-1.365,6.384-1.391,13.264,0.563,19.699l0,0c3.576,11.778,13.783,22.063,25.399,25.617l0,0
			C318.594,184.771,328.641,183.382,337.89,181.253"/>
	</g>
</g>
<g id="Y_x5F_SEC_x5F_039" display="none">
	<g id="SPLINE_70_" display="inline">
		<path fill="#99CC00" d="M366.355,37.023c6.647,0.908,13.915,8.521,14.232,14.232l0,0c0.536,9.666-18.827,13.891-24.082,24.082l0,0
			c-0.712,1.382-1.166,2.875-1.461,4.383l0,0c-1.444,7.387,0.909,15.154,8.027,21.159l0,0c3.249,2.741,7.492,5.116,7.305,7.306l0,0
			c-0.187,2.188-4.802,4.193-7.305,7.305l0,0c-5.032,6.254-1.533,16.98-6.566,19.698l0,0c-3.207,1.731-9.878,0.21-13.15,1.461l0,0
			c-7.037,2.692,1.664,18.218,0,28.465l0,0c-1.176,7.244-7.534,11.852-14.232,14.232l0,0c-6.556,2.33-13.438,2.529-19.698,0l0,0
			c-6.397-2.586-12.146-8.021-14.232-14.232l0,0c-2.95-8.787,1.426-19.128,0-28.465l0,0c-0.453-2.964-1.491-5.826-2.192-8.767l0,0
			c-1.528-6.408-1.457-13.182,0-19.697l0,0c4.733-21.172,24.09-39.623,44.888-45.619l0,0c1.502-0.434,3.011-0.801,4.383-1.461l0,0
			C352.392,56.238,355.107,35.488,366.355,37.023"/>
	</g>
	<g id="SPLINE_71_" display="inline">
		<path fill="#99CC00" d="M423.285,159.648c2.557,0.319,5.415,2.824,5.467,5.466l0,0c0.049,2.641-2.709,5.42-5.467,5.465l0,0
			c-2.759,0.047-5.516-2.641-5.466-5.465l0,0C417.869,162.29,420.728,159.329,423.285,159.648"/>
	</g>
</g>
<g id="Y_x5F_SEC_x5F_040" display="none">
	<g id="SPLINE_65_" display="inline">
		<path fill="#99CC00" d="M485.679,165.114c4.432-5.038,8.369-10.971,14.232-14.233l0,0c2.633-1.465,5.654-2.391,8.768-2.191l0,0
			c7.999,0.515,16.6,8.469,16.424,16.425l0,0c-0.178,7.955-9.133,15.91-16.424,16.424l0,0c-2.838,0.2-5.424-0.727-8.768-2.191l0,0
			C492.462,176.084,481.248,170.151,485.679,165.114"/>
	</g>
	<g id="SPLINE_61_" display="inline">
		<path fill="#99CC00" d="M457.214,97.254c1.172-6.131,3.401-11.856,6.576-17.533l0,0c3.936-7.041,9.324-14.008,16.424-16.424l0,0
			c19.401-6.604,51.581,20.781,44.889,44.889l0,0c-2.449,8.82-10.104,17.201-16.424,16.424l0,0
			c-10.959-1.35-17.92-30.213-28.465-28.465l0,0c-4.906,0.813-10.588,8.249-17.533,6.574l0,0
			C459.813,102.028,456.731,99.785,457.214,97.254"/>
	</g>
	<g id="SPLINE_60_" display="inline">
		<path fill="#99CC00" d="M360.889,62.188c-5.168,3.998-9.163,10.854-8.766,17.533l0,0c0.265,4.453,2.481,8.827,5.845,11.688l0,0
			c2.413,2.055,5.416,3.327,8.388,4.195l0,0c9.296,2.713,18.275,1.449,28.465,7.115l0,0c2.684,1.493,5.451,3.467,5.466,5.467l0,0
			c0.013,1.999-2.727,4.023-5.466,5.465l0,0c-10.398,5.473-20.784,2.549-28.465,7.117l0,0c-5.738,3.411-9.966,11.004-17.533,13.149
			l0,0c-2.06,0.584-4.367,0.765-5.788,1.446l0,0c-7.304,3.508,8.804,20.276,7.438,29.751l0,0
			c-0.793,5.497-7.469,8.541-12.582,12.581l0,0c-3.148,2.489-5.704,5.355-8.766,6.575l0,0c-5.674,2.26-13.09-1.138-19.698-4.924l0,0
			c-6.55-3.754-12.306-7.891-14.232-14.232l0,0c-0.839-2.764-0.951-5.943,0-8.766l0,0c3.859-11.46,25.231-17.018,25.164-25.165l0,0
			c-0.038-4.512-6.65-9.817-10.932-16.397l0,0c-1.478-2.272-2.679-4.694-1.65-6.601l0,0c0.353-0.654,0.968-1.246,1.65-1.65l0,0
			c0.36-0.213,0.738-0.374,1.1-0.551l0,0c8.65-4.223,8.226-17.852,13.132-26.264l0,0c3.363-5.767,9.231-9.082,14.232-14.232l0,0
			c4.871-5.016,8.918-11.773,17.533-8.767l0,0C358.82,57.908,362.927,60.611,360.889,62.188"/>
	</g>
	<g id="SPLINE_59_" display="inline">
		<path fill="#99CC00" d="M337.89,93.953c4.225,1.063,8.437,2.531,11.688,5.844l0,0c2.334,2.378,4.173,5.705,4.195,8.389l0,0
			c0.05,6.27-9.826,9.021-13.15,17.533l0,0c-0.927,2.373-1.345,5.193-2.733,5.465l0,0c-1.408,0.275-3.816-2.072-4.383-4.383l0,0
			c-0.826-3.367,2.259-6.654,2.191-8.768l0,0c-0.199-6.195-27.556-2.269-24.622-9.848l0,0c0.136-0.352,0.337-0.729,0.55-1.101l0,0
			C316.707,98.197,328.398,91.565,337.89,93.953"/>
	</g>
</g>
<g id="Y_x5F_SEC_x5F_041" display="none">
	<g id="SPLINE_76_" display="inline">
		<path fill="#99CC00" d="M442.982,93.953c1.86,3.689,5.498,9.268,8.768,8.766l0,0c2.039-0.313,3.933-2.987,5.465-5.465l0,0
			c3.887-6.283,5.436-11.293,8.768-17.533l0,0c3.42-6.408,8.719-14.113,14.232-14.232l0,0c5.514-0.119,11.24,7.35,14.232,14.232l0,0
			c2.912,6.703,3.227,12.853,8.766,17.533l0,0c4.367,3.691,11.986,6.47,10.932,10.932l0,0c-0.527,2.23-3.225,4.883-5.465,5.465l0,0
			c-4.486,1.168-7.158-5.938-10.933-10.932l0,0c-4.786-6.331-11.345-9.269-17.532-8.766l0,0c-6.189,0.502-12.008,4.445-17.533,8.766
			l0,0c-2.18,1.704-4.313,3.467-5.467,5.467l0,0c-4.246,7.362,4.797,17.938,0,28.464l0,0c-1.303,2.858-3.625,5.712-5.465,5.466l0,0
			c-1.84-0.247-3.198-3.596-5.466-5.466l0,0c-4.067-3.354-11.063-1.954-13.149-4.384l0,0c-2.965-3.45,3.988-14.631,0-19.697l0,0
			c-1.256-1.596-3.596-2.584-4.383-4.383l0,0C426.187,102.343,439.962,87.962,442.982,93.953"/>
	</g>
	<g id="SPLINE_77_" display="inline">
		<path fill="#99CC00" d="M508.679,159.648c2.556,0.319,5.414,2.824,5.465,5.466l0,0c0.05,2.641-2.709,5.42-5.465,5.465l0,0
			c-2.759,0.047-5.518-2.641-5.467-5.465l0,0C503.263,162.29,506.121,159.329,508.679,159.648"/>
	</g>
</g>
<g id="Y_x5F_SEC_x5F_042" display="none">
	<g id="SPLINE_41_" display="inline">
		<path fill="#99CC00" d="M474.748,79.721c0.833-6.657,7.354-14.102,14.232-14.232l0,0c6.879-0.131,14.113,7.051,14.232,14.232l0,0
			c0.118,7.182-6.878,14.363-14.232,14.232l0,0C481.626,93.821,473.916,86.379,474.748,79.721"/>
	</g>
	<g id="SPLINE_40_" display="inline">
		<path fill="#99CC00" d="M508.679,131.184c2.521-0.531,4.014,2.547,5.465,5.466l0,0c5.508,11.078,10.4,19.857,7.116,28.465l0,0
			c-1.992,5.219-6.991,10.377-12.581,12.581l0,0c-9.219,3.638-20.043-0.749-28.465-7.116l0,0c-2.22-1.678-4.273-3.49-5.467-5.465
			l0,0C467.336,152.862,493.027,134.48,508.679,131.184"/>
	</g>
</g>
<g id="Y_x5F_SEC_x5F_043" display="none">
	<g id="SPLINE_80_" display="inline">
		<path fill="#99CC00" d="M508.679,187.558c9.074-5.438,23.625-13.004,22.442-22.443l0,0c-0.349-2.785-2.065-5.732-3.287-8.766l0,0
			c-2.569-6.386-2.944-13.159,0-19.699l0,0c1.411-3.136,3.585-6.217,3.507-8.767l0,0c-0.173-5.643-11.369-8.68-14.773-14.773l0,0
			c-0.865-1.547-1.227-3.291-1.97-4.924l0,0c-1.173-2.58-3.294-4.888-5.919-5.921l0,0c-3.152-1.239-7.03-0.644-9.85-1.97l0,0
			c-3.91-1.838-5.783-7.369-9.85-9.849l0,0c-0.497-0.304-1.027-0.562-1.461-0.877l0,0c-2.641-1.924-1.689-6.006-3.283-9.849l0,0
			c-0.874-2.105-2.512-4.139-4.021-4.022l0,0c-1.511,0.116-2.893,2.384-4.023,4.022l0,0c-0.288,0.418-0.561,0.795-0.804,1.207l0,0
			c-1.938,3.278-2.079,8.82-3.94,10.834l0,0c-3.279,3.545-11.903-3.857-19.697-4.925l0,0c-11.59-1.587-21.346,10.834-21.35,21.349
			l0,0c0,3.146,0.873,6.123,2.191,8.766l0,0c3.052,6.113,8.49,10.445,14.775,14.773l0,0c1.473,1.016,2.994,2.029,4.383,2.192l0,0
			c3.106,0.362,5.557-3.542,8.767-6.575l0,0c5.946-5.62,14.499-8.254,19.698-4.925l0,0c1.586,1.017,2.86,2.588,4.383,4.384l0,0
			c2.702,3.189,6.186,7.084,4.924,9.849l0,0c-0.71,1.557-2.925,2.755-4.383,4.384l0,0c-2.591,2.893-2.797,7.143-4.924,9.848l0,0
			c-3.805,4.842-13.754,4.745-19.698,0l0,0c-3.741-2.984-5.897-7.812-8.767-8.766l0,0c-4.66-1.549-11.207,7.106-14.232,14.233l0,0
			c-2.637,6.206-2.604,11.251,0,17.532l0,0c2.988,7.21,9.361,16.046,14.232,14.232l0,0c3-1.118,5.428-6.276,8.767-8.767l0,0
			c5.302-3.955,12.896-1.174,19.698,0l0,0c7.009,1.209,13.176,0.707,19.697,4.924l0,0
			C502.919,186.215,506.001,189.162,508.679,187.558"/>
	</g>
</g>
<g id="Y_x5F_SEC_x5F_044" display="none">
	<g id="SPLINE_33_" display="inline">
		<path fill="#99CC00" d="M508.679,55.91c10.671,3.476,22.057,12.978,23.809,23.811l0,0c1.027,6.343-1.249,13.142-0.82,19.697l0,0
			c0.192,2.948,0.932,5.848,1.316,8.768l0,0c1.609,12.284-3.09,24.941-2.227,37.23l0,0c0.361,5.141,1.694,10.216,6.385,14.232l0,0
			c2.324,1.991,5.473,3.721,5.467,5.466l0,0c-0.008,1.744-3.168,3.504-5.467,5.465l0,0c-4.344,3.709-5.6,8.143-8.766,11.689l0,0
			c-4.5,5.041-12.854,8.288-19.697,6.565l0,0c-3.047-0.767-5.794-2.517-8.768-2.923l0,0c-3.342-0.453-6.967,0.791-9.85,3.285l0,0
			c-3.865,3.342-6.393,8.93-9.848,9.848l0,0c-4.996,1.328-11.935-7.092-14.232-14.232l0,0c-2.25-6.988-0.058-12.753,0-19.697l0,0
			c0.025-3.186-0.397-6.619-2.191-8.766l0,0c-2.188-2.618-6.409-3.326-9.85-4.925l0,0c-6.527-3.037-10.242-9.287-14.773-14.774l0,0
			c-2.377-2.878-4.978-5.546-6.576-8.767l0,0c-2.871-5.788-2.498-13.357,0-19.697l0,0c3.438-8.721,10.902-15.113,19.158-19.157l0,0
			c3.355-1.644,6.842-2.9,9.85-4.925l0,0c7.188-4.839,11.635-14.067,18.615-18.615l0,0c5.576-3.634,12.77-4.279,19.697-7.387l0,0
			C502.886,56.767,505.814,54.978,508.679,55.91"/>
	</g>
</g>
<g id="Y_x5F_SEC_x5F_045" display="none">
	<g id="SPLINE_82_" display="inline">
		<path fill="#99CC00" d="M423.285,45.79c2.557,0.319,5.415,2.824,5.467,5.466l0,0c0.049,2.642-2.709,5.42-5.467,5.466l0,0
			c-2.759,0.046-5.516-2.642-5.466-5.466l0,0C417.869,48.432,420.728,45.471,423.285,45.79"/>
	</g>
	<g id="SPLINE_83_" display="inline">
		<path fill="#99CC00" d="M488.98,57.276c5.099-4.173,12.793-3.847,19.699-1.642l0,0c11.896,3.801,21.447,13.183,24.084,24.086l0,0
			c2.887,11.934-2.512,25.69,1.922,37.23l0,0c0.637,1.654,1.473,3.262,2.457,4.744l0,0c3.896,5.867,10.093,9.754,14.955,14.954l0,0
			c2.421,2.591,4.513,5.507,5.844,8.767l0,0c2.488,6.094,2.32,13.384,0,19.698l0,0c-3.465,9.428-11.731,16.672-20.799,20.797l0,0
			c-2.848,1.297-5.775,2.285-8.766,2.923l0,0c-6.379,1.362-13.04,1.131-19.697,0.821l0,0c-2.973-0.139-5.941-0.293-8.768-0.73l0,0
			c-6.758-1.047-12.686-3.719-19.697-7.387l0,0c-7.742-4.049-16.805-9.315-16.424-16.424l0,0c0.147-2.766,1.725-5.812,2.191-8.766
			l0,0c1.07-6.793-3.727-13.114-6.566-19.699l0,0c-2.654-6.154-3.599-12.541-5.475-18.616l0,0c-0.474-1.533-1.007-3.048-2.191-4.383
			l0,0c-1.869-2.104-5.359-3.763-5.466-5.465l0,0c-0.106-1.702,3.169-3.448,5.466-5.467l0,0c4.729-4.152,5.311-9.459,7.115-14.231
			l0,0C463.786,75.479,477.792,66.434,488.98,57.276"/>
	</g>
</g>
<g id="Y_x5F_SEC_x5F_046" display="none">
	<g id="SPLINE_22_" display="inline">
		<path fill="#99CC00" d="M508.679,55.635c10.713,3.758,21.029,13.099,24.084,24.086l0,0c1.773,6.376,1.101,13.305-1.642,19.697l0,0
			c-1.298,3.028-3.062,5.936-3.287,8.768l0,0c-0.489,6.152,6.281,11.943,8.212,18.615l0,0c0.43,1.48,0.619,3.006,1.096,4.383l0,0
			c2.124,6.135,9.929,9.336,14.232,14.232l0,0c6.086,6.925,5.171,17.241,0,28.465l0,0c-3.656,7.937-9.441,16.327-14.232,14.232l0,0
			c-2.951-1.29-5.527-6.56-8.766-8.767l0,0c-7.667-5.226-19.058,6.693-28.465,7.115l0,0c-9.68,0.436-17.262-11.303-21.349-21.348
			l0,0c-1.489-3.664-2.517-7.102-4.925-9.849l0,0c-3.045-3.475-8.305-5.842-9.848-9.85l0,0c-0.973-2.522-0.474-5.694,0-8.767l0,0
			c0.486-3.166,0.944-6.227,2.191-8.767l0,0c2.773-5.656,9.453-8.731,14.232-14.232l0,0c1.449-1.67,2.725-3.563,2.731-5.465l0,0
			c0.007-1.902-1.253-3.812-2.731-5.467l0,0c-4.875-5.447-12.137-8.125-14.232-14.231l0,0c-0.914-2.659-0.848-5.971,0-8.767l0,0
			c1.945-6.42,8.008-10.127,14.232-14.232l0,0C489.527,59.346,499.203,52.313,508.679,55.635"/>
	</g>
</g>
<g id="Y_x5F_SEC_x5F_047" display="none">
	<g id="SPLINE_85_" display="inline">
		<path fill="#99CC00" d="M461.056,88.487c0.485-3.62,3.603-6.27,6.576-8.767l0,0c4.825-4.055,9.267-7.71,12.582-12.582l0,0
			c0.49-0.721,0.956-1.469,1.46-2.191l0,0c3.727-5.336,9.568-9.283,16.072-10.959l0,0c3.655-0.941,7.519-1.164,10.933,0l0,0
			c1.529,0.523,2.969,1.324,4.383,2.192l0,0c6.027,3.698,11.591,8.587,14.772,14.773l0,0c1.407,2.736,2.35,5.726,2.923,8.767l0,0
			c1.231,6.532,0.763,13.301,2.462,19.697l0,0c0.78,2.943,2.021,5.807,2.556,8.768l0,0c1.67,9.227-3.511,19.395,0.274,28.464l0,0
			c0.282,0.677,0.615,1.348,1.093,1.821l0,0c1.04,1.031,2.769,1.132,4.385,1.462l0,0c8.11,1.655,13.33,9.099,16.414,16.416l0,0
			c1.2,2.848,2.078,5.676,2.191,8.766l0,0c0.113,3.089-0.537,6.439-2.191,8.767l0,0c-2.674,3.763-7.973,4.856-11.689,8.766l0,0
			c-3.276,3.448-5.324,9.087-9.109,9.11l0,0c-1.356,0.008-2.938-0.705-4.383-1.461l0,0c-1.533-0.803-2.915-1.654-4.383-2.191l0,0
			c-5.902-2.165-13.207,0.717-19.697,0l0,0c-10.716-1.184-19.215-12.17-22.991-22.99l0,0c-3.315-9.498-2.991-18.868-2.044-28.465
			l0,0c0.654-6.626,1.605-13.36,0.492-19.698l0,0c-0.516-2.938-1.475-5.789-2.556-8.766l0,0c-0.363-0.997-0.738-2.007-1.366-2.733
			l0,0c-1.008-1.165-2.668-1.601-4.385-2.191l0,0C468.511,100.74,460.134,95.391,461.056,88.487"/>
	</g>
</g>
<g id="Y_x5F_SEC_x5F_048" display="none">
	<g id="SPLINE_16_" display="inline">
		<path fill="#99CC00" d="M520.718,193.579c2.652-1.429,2.522-5.271,2.191-8.768l0,0c-1.039-11.012-4.057-18.577,0-28.463l0,0
			c2.869-6.992,9.275-15.143,14.232-14.233l0,0c6.108,1.121,10.02,15.992,17.533,17.533l0,0c3.313,0.68,7.325-1.231,10.932,0l0,0
			c2.551,0.87,4.896,3.313,5.465,5.466l0,0c2.056,7.756-18.956,11.736-19.697,19.697l0,0c-0.24,2.582,1.652,5.586,2.191,8.768l0,0
			c1.389,8.18-6.16,17.551-16.424,16.424l0,0C526.879,208.874,513.901,197.248,520.718,193.579"/>
	</g>
	<g id="SPLINE_14_" display="inline">
		<path fill="#99CC00" d="M480.214,186.462c9.951-1.488,20.623-11.529,21.348-21.348l0,0c0.703-9.543-7.988-18.872-7.115-28.465l0,0
			c0.273-3.021,1.496-6.067,2.92-8.767l0,0c1.625-3.076,3.51-5.699,5.846-8.767l0,0c1.713-2.249,3.668-4.737,5.467-5.466l0,0
			c5.766-2.334,9.906,13.449,17.532,17.533l0,0c3.36,1.801,7.399,1.327,10.931,0l0,0c6.502-2.443,11.288-7.781,14.232-14.232l0,0
			c4.166-9.123,4.652-20.471,0-28.464l0,0c-3.289-5.651-9.148-9.626-14.232-14.232l0,0c-4.727-4.283-8.785-9.114-11.688-14.61l0,0
			c-1.457-2.756-2.621-5.678-4.194-8.389l0,0c-2.985-5.143-7.44-9.52-12.581-12.582l0,0c-2.712-1.613-5.612-2.861-8.39-4.193l0,0
			c-5.538-2.657-10.582-5.646-14.61-11.688l0,0c-1.664-2.497-3.155-5.515-5.465-5.466l0,0c-2.313,0.049-5.441,3.163-5.467,5.466l0,0
			c-0.025,2.302,3.055,3.792,5.467,5.466l0,0c5.836,4.05,7.754,9.172,11.688,14.61l0,0c1.972,2.726,4.449,5.53,4.193,8.388l0,0
			c-0.273,3.066-3.693,6.193-7.115,7.117l0,0c-2.981,0.803-5.964-0.064-8.766,0l0,0c-9.655,0.22-17.186,11.494-21.35,21.348l0,0
			c-2.193,5.193-3.453,9.99-7.115,14.232l0,0c-4.633,5.365-13.109,9.841-14.232,14.232l0,0c-2.246,8.783,24.921,17.23,28.465,28.464
			l0,0c2.582,8.188-7.387,17.854-7.117,28.465l0,0C459.142,176.032,470.26,187.95,480.214,186.462"/>
	</g>
</g>
<g id="Y_x5F_SEC_x5F_049" display="none">
	<g id="SPLINE_88_" display="inline">
		<path fill="#99CC00" d="M537.142,207.812c6.658-0.832,14.102-7.354,14.232-14.232l0,0c0.132-6.879-7.051-14.114-14.232-14.232l0,0
			c-7.181-0.119-14.363,6.879-14.232,14.232l0,0C523.042,200.933,530.486,208.644,537.142,207.812"/>
	</g>
	<g id="SPLINE_89_" display="inline">
		<path fill="#99CC00" d="M531.677,108.186c-3.158,8.947-5.393,18.494,0,28.464l0,0c1.463,2.707,3.49,5.446,5.465,5.466l0,0
			c1.977,0.021,3.899-2.679,5.467-5.466l0,0c5.769-10.265,6.695-21.737,0-28.464l0,0c-1.819-1.827-4.199-3.304-5.467-5.467l0,0
			c-0.943-1.611-1.269-3.604-1.822-5.465l0,0c-2.021-6.809-7.099-11.868-11.688-17.533l0,0c-4.607-5.686-8.724-11.982-14.953-14.954
			l0,0c-2.788-1.329-5.996-1.992-8.975-2.991l0,0c-5.518-1.851-10.238-4.853-14.025-10.52l0,0c-1.67-2.498-3.158-5.515-5.465-5.466
			l0,0c-2.309,0.05-5.437,3.163-5.467,5.466l0,0c-0.029,2.303,3.036,3.793,5.467,5.466l0,0c5.512,3.794,7.752,8.526,10.519,14.026
			l0,0c1.493,2.967,3.141,6.156,2.991,8.973l0,0c-0.332,6.272-9.577,10.687-11.688,17.533l0,0c-0.579,1.871-0.623,3.926-1.822,5.465
			l0,0c-1.611,2.066-5.303,3.209-5.467,5.467l0,0c-0.163,2.257,3.203,5.629,5.467,5.465l0,0c2.263-0.163,3.423-3.862,5.465-5.465
			l0,0c1.521-1.195,3.533-1.227,5.465-1.822l0,0c7.068-2.181,13.077-11.922,17.535-11.688l0,0
			c4.455,0.233,7.36,10.443,17.532,11.688l0,0C528.992,106.703,532.316,106.373,531.677,108.186"/>
	</g>
</g>
<g id="Y_x5F_SEC_x5F_050" display="none">
	<g id="SPLINE_3_" display="inline">
		<path fill="#99CC00" d="M480.214,45.79c1.643,1.983,3.375,3.972,5.465,5.466l0,0c1.654,1.182,3.531,2.055,5.465,2.732l0,0
			c5.723,2.006,11.935,2.303,17.535,4.385l0,0c9.354,3.476,17.002,11.931,21.347,21.348l0,0c2.291,4.963,3.663,10.193,7.116,14.232
			l0,0c4.368,5.108,12.063,8.312,14.232,14.232l0,0c0.945,2.578,0.841,5.672,0,8.766l0,0c-1.931,7.104-7.746,14.212-14.232,14.232
			l0,0c-6.484,0.021-13.639-7.045-14.232-14.232l0,0c-0.258-3.131,0.729-6.284,0-8.766l0,0c-1.322-4.505-8.3-6.795-14.23-7.116l0,0
			c-4.493-0.245-8.384,0.64-11.689,2.922l0,0c-1.628,1.123-3.113,2.585-4.194,4.194l0,0c-5.191,7.72-1.089,18.823,0,28.464l0,0
			c1.122,9.938-0.961,18.322-7.116,28.465l0,0c-1.621,2.672-3.525,5.467-5.465,5.465l0,0c-1.941,0-3.916-2.795-5.467-5.465l0,0
			c-5.885-10.137-5.65-18.479-7.115-28.465l0,0c-1.424-9.688-4.447-20.923,0-28.464l0,0c3.706-6.286,12.602-10.006,16.775-16.777
			l0,0c2.119-3.438,3.021-7.662,2.922-11.688l0,0c-0.148-6.039-2.55-11.631-4.384-17.533l0,0c-0.62-1.996-1.173-4.027-2.731-5.466
			l0,0c-1.973-1.819-5.548-2.692-5.467-5.466l0,0C474.83,48.482,478.569,43.807,480.214,45.79"/>
	</g>
</g>
<g id="BOX" display="none">
	<rect x="0.5" y="0.5" display="inline" fill="none" stroke="#020202" width="800" height="300"/>
</g>
</svg>
