<?xml version="1.0" encoding="utf-8"?>
<!-- Generator: Adobe Illustrator 13.0.0, SVG Export Plug-In . SVG Version: 6.00 Build 14948)  -->
<!DOCTYPE svg PUBLIC "-//W3C//DTD SVG 1.1//EN" "http://www.w3.org/Graphics/SVG/1.1/DTD/svg11.dtd">
<svg version="1.1" id="Layer_1" xmlns="http://www.w3.org/2000/svg" xmlns:xlink="http://www.w3.org/1999/xlink" x="0px" y="0px"
	 width="801px" height="301px" viewBox="0 0 801 301" enable-background="new 0 0 801 301" xml:space="preserve">
<g id="Layer_2" display="none">
	<rect x="20" display="inline" fill="#FFFDFD" width="200" height="300"/>
	<g display="inline">
		<g>
			<g>
				<defs>
					<rect id="SVGID_1_" y="-152.894" width="801" height="602.97"/>
				</defs>
				<clipPath id="SVGID_2_">
					<use xlink:href="#SVGID_1_"  overflow="visible"/>
				</clipPath>
			</g>
		</g>
	</g>
	<rect x="-13.889" display="inline" fill="#FFFFFF" width="241.488" height="310.583"/>
	<rect x="376.609" y="144.842" display="inline" fill="#FFFFFF" width="435.376" height="10.566"/>
</g>
<g>
	<line fill="none" stroke="#FF0000" stroke-width="0.75" x1="537.163" y1="133.496" x2="525.108" y2="135.087"/>
	<line fill="none" stroke="#FF0000" stroke-width="0.75" x1="533.753" y1="116.318" x2="522.017" y2="119.463"/>
	<line fill="none" stroke="#FF0000" stroke-width="0.75" x1="509.833" y1="90.016" x2="520.38" y2="83.929"/>
	<line fill="none" stroke="#FF0000" stroke-width="0.75" x1="500.964" y1="76.768" x2="510.61" y2="69.373"/>
	<line fill="none" stroke="#FF0000" stroke-width="0.75" x1="478.429" y1="54.224" x2="485.825" y2="44.59"/>
	<line fill="none" stroke="#FF0000" stroke-width="0.75" x1="465.112" y1="45.31" x2="471.204" y2="34.754"/>
	<line fill="none" stroke="#FF0000" stroke-width="0.75" x1="435.667" y1="33.133" x2="438.816" y2="21.38"/>
	<line fill="none" stroke="#FF0000" stroke-width="0.75" x1="419.985" y1="30.034" x2="421.571" y2="17.969"/>
	<line fill="none" stroke="#FF0000" stroke-width="0.75" x1="270.97" y1="133.496" x2="283.026" y2="135.087"/>
	<line fill="none" stroke="#FF0000" stroke-width="0.75" x1="274.378" y1="116.318" x2="286.118" y2="119.463"/>
	<line fill="none" stroke="#FF0000" stroke-width="0.75" x1="298.301" y1="90.016" x2="287.754" y2="83.929"/>
	<line fill="none" stroke="#FF0000" stroke-width="0.75" x1="307.167" y1="76.768" x2="297.523" y2="69.373"/>
	<line fill="none" stroke="#FF0000" stroke-width="0.75" x1="329.705" y1="54.224" x2="322.306" y2="44.59"/>
	<line fill="none" stroke="#FF0000" stroke-width="0.75" x1="343.02" y1="45.31" x2="336.927" y2="34.754"/>
	<line fill="none" stroke="#FF0000" stroke-width="0.75" x1="372.467" y1="33.133" x2="369.318" y2="21.38"/>
	<line fill="none" stroke="#FF0000" stroke-width="0.75" x1="388.147" y1="30.034" x2="386.56" y2="17.969"/>
	<line fill="none" stroke="#FF0000" stroke-width="0.75" x1="537.163" y1="168.525" x2="525.108" y2="166.934"/>
	<line fill="none" stroke="#FF0000" stroke-width="0.75" x1="533.753" y1="185.703" x2="522.017" y2="182.559"/>
	<line fill="none" stroke="#FF0000" stroke-width="0.75" x1="509.833" y1="212.005" x2="520.38" y2="218.092"/>
	<line fill="none" stroke="#FF0000" stroke-width="0.75" x1="500.964" y1="225.252" x2="510.61" y2="232.646"/>
	<line fill="none" stroke="#FF0000" stroke-width="0.75" x1="478.429" y1="247.797" x2="485.825" y2="257.432"/>
	<line fill="none" stroke="#FF0000" stroke-width="0.75" x1="465.112" y1="256.71" x2="471.204" y2="267.266"/>
	<line fill="none" stroke="#FF0000" stroke-width="0.75" x1="435.667" y1="268.891" x2="438.816" y2="280.641"/>
	<line fill="none" stroke="#FF0000" stroke-width="0.75" x1="419.985" y1="271.986" x2="421.571" y2="284.051"/>
	<line fill="none" stroke="#FF0000" stroke-width="0.75" x1="270.97" y1="168.525" x2="283.026" y2="166.934"/>
	<line fill="none" stroke="#FF0000" stroke-width="0.75" x1="274.378" y1="185.703" x2="286.118" y2="182.559"/>
	<line fill="none" stroke="#FF0000" stroke-width="0.75" x1="298.301" y1="212.005" x2="287.754" y2="218.092"/>
	<line fill="none" stroke="#FF0000" stroke-width="0.75" x1="307.167" y1="225.252" x2="297.523" y2="232.646"/>
	<line fill="none" stroke="#FF0000" stroke-width="0.75" x1="329.705" y1="247.797" x2="322.306" y2="257.432"/>
	<line fill="none" stroke="#FF0000" stroke-width="0.75" x1="343.02" y1="256.71" x2="336.927" y2="267.266"/>
	<line fill="none" stroke="#FF0000" stroke-width="0.75" x1="372.467" y1="268.891" x2="369.318" y2="280.641"/>
	<line fill="none" stroke="#FF0000" stroke-width="0.75" x1="388.147" y1="271.986" x2="386.56" y2="284.051"/>
</g>
<line fill="none" stroke="#FF0000" stroke-width="0.75" x1="404.066" y1="144.842" x2="404.066" y2="157.432"/>
<line fill="none" stroke="#FF0000" stroke-width="0.75" x1="398.282" y1="151.066" x2="410.873" y2="151.066"/>
<rect x="399.7" y="251.67" fill="none" width="8.731" height="33.662"/>
<text transform="matrix(0 -1 1 0 406.8984 285.3291)" fill="#FF0000" font-family="'ArialMT'" font-size="6">0h</text>
<rect x="306.484" y="235.973" transform="matrix(0.707 -0.7072 0.7072 0.707 -77.2313 293.176)" fill="none" width="17.471" height="7.652"/>
<text transform="matrix(0.7071 -0.7071 0.7071 0.7071 311.4658 248.4023)" fill="#FF0000" font-family="'ArialMT'" font-size="6">6h</text>
<polygon fill="none" points="331.2,185.016 281.393,205.761 278.481,198.693 328.29,177.952 "/>
<text transform="matrix(0.9239 -0.3827 0.3827 0.9239 281.1836 205.2441)" fill="#FF0000" font-family="'ArialMT'" font-size="6">9h</text>
<rect x="335.688" y="246.114" transform="matrix(0.3827 -0.9239 0.9239 0.3827 -6.9555 489.4672)" fill="none" width="54.212" height="7.649"/>
<text transform="matrix(0.3827 -0.9239 0.9239 0.3827 355.5288 276.2588)" fill="#FF0000" font-family="'ArialMT'" font-size="6">3h</text>
<rect x="399.7" y="16.67" fill="none" width="8.731" height="21.26"/>
<text transform="matrix(0 1 -1 0 401.2305 16.668)" fill="#FF0000" font-family="'ArialMT'" font-size="6">24h</text>
<rect x="269.8" y="147.263" fill="none" width="24.43" height="7.648"/>
<text transform="matrix(1 0 0 1 269.7993 154.4609)" fill="#FF0000" font-family="'ArialMT'" font-size="6">12h</text>
<rect x="305.785" y="60.077" transform="matrix(0.7072 0.707 -0.707 0.7072 137.9757 -205.356)" fill="none" width="22.266" height="7.652"/>
<text transform="matrix(0.7071 0.7071 -0.7071 0.7071 306.686 58.4629)" fill="#FF0000" font-family="'ArialMT'" font-size="6">18h</text>
<rect x="278.69" y="100.581" transform="matrix(0.9239 0.3826 -0.3826 0.9239 62.1228 -103.576)" fill="none" width="25.578" height="7.649"/>
<text transform="matrix(0.9239 0.3827 -0.3827 0.9239 278.3579 102.6265)" fill="#FF0000" font-family="'ArialMT'" font-size="6">15h</text>
<rect x="347.074" y="31.347" transform="matrix(0.3828 0.9238 -0.9238 0.3828 252.2508 -307.2166)" fill="none" width="17.935" height="7.651"/>
<text transform="matrix(0.3827 0.9239 -0.9239 0.3827 349.4858 28.168)" fill="#FF0000" font-family="'ArialMT'" font-size="6">21h</text>
<rect x="455.097" y="223.835" transform="matrix(0.7084 0.7058 -0.7058 0.7084 300.892 -272.9773)" fill="none" width="51.43" height="7.65"/>
<text transform="matrix(0.7083 0.7059 -0.7059 0.7083 491.8936 243.4746)" fill="#FF0000" font-family="'ArialMT'" font-size="6">6h</text>
<polygon fill="none" points="526.739,206.021 480.132,186.52 483.081,179.463 529.688,198.963 "/>
<text transform="matrix(0.9226 0.3858 -0.3858 0.9226 520.7617 203.0273)" fill="#FF0000" font-family="'ArialMT'" font-size="6">9h</text>
<polygon fill="none" points="452.06,276.359 431.313,226.28 438.383,223.354 459.122,273.432 "/>
<text transform="matrix(0.3827 0.9239 -0.9239 0.3827 449.9746 270.0518)" fill="#FF0000" font-family="'ArialMT'" font-size="6">3h</text>
<rect x="487.464" y="147.129" fill="none" width="50.672" height="7.648"/>
<text transform="matrix(1 0 0 1 528.123 154.3271)" fill="#FF0000" font-family="'ArialMT'" font-size="6">12h</text>
<polygon fill="none" points="501.825,58.87 466.188,94.201 460.798,88.774 496.438,53.443 "/>
<text transform="matrix(0.71 -0.7042 0.7042 0.71 494.3936 65.5615)" fill="#FF0000" font-family="'ArialMT'" font-size="6">18h</text>
<rect x="475.764" y="105.737" transform="matrix(0.9238 -0.3829 0.3829 0.9238 -3.6283 200.8966)" fill="none" width="54.207" height="7.651"/>
<text transform="matrix(0.9238 -0.3829 0.3829 0.9238 519.9424 106.0674)" fill="#FF0000" font-family="'ArialMT'" font-size="6">15h</text>
<polygon fill="none" points="458.237,28.164 437.511,78.252 430.438,75.327 451.171,25.238 "/>
<text transform="matrix(0.3824 -0.924 0.924 0.3824 454.0352 37.2568)" fill="#FF0000" font-family="'ArialMT'" font-size="6">21h</text>
<polyline fill="none" stroke="#808080" points="291.473,149.928 303.375,150.645 303.375,119.463 370.576,119.463 370.576,150.645 
	384.743,150.645 384.743,151.354 416.838,151.354 416.838,150.645 434.405,150.645 434.405,122.298 482.706,122.298 
	482.706,151.354 525.108,152.756 "/>
<g display="none" opacity="0.5" enable-background="new    ">
	<g display="inline">
		<g>
			<defs>
				<rect id="SVGID_3_" x="557.85" y="133.727" width="183.101" height="84.137"/>
			</defs>
			<clipPath id="SVGID_4_">
				<use xlink:href="#SVGID_3_"  overflow="visible"/>
			</clipPath>
			<g transform="matrix(1 0 0 1 6.103516e-05 1.525879e-05)" clip-path="url(#SVGID_4_)">
			</g>
		</g>
	</g>
</g>
</svg>
